<svg width="1200" height="137" viewBox="0 0 1200 137" fill="none" xmlns="http://www.w3.org/2000/svg">
<rect x="0.5" y="0.827881" width="1199" height="135" rx="19.5" fill="#FFF0F1"/>
<rect x="0.5" y="0.827881" width="1199" height="135" rx="19.5" stroke="#FFDDE0"/>
<path d="M68 56.3279V68.3279M68 80.3279H68.03M98 68.3279C98 84.8964 84.5685 98.3279 68 98.3279C51.4315 98.3279 38 84.8964 38 68.3279C38 51.7593 51.4315 38.3279 68 38.3279C84.5685 38.3279 98 51.7593 98 68.3279Z" stroke="#FC0619" stroke-width="2" stroke-linecap="round" stroke-linejoin="round"/>
<path d="M138.582 59.3279V33.1461H148.401C150.412 33.1461 152.099 33.5211 153.463 34.2711C154.835 35.0211 155.871 36.0523 156.57 37.3648C157.277 38.6688 157.631 40.1517 157.631 41.8137C157.631 43.4927 157.277 44.9841 156.57 46.2881C155.862 47.5921 154.818 48.6191 153.438 49.3691C152.057 50.1106 150.357 50.4813 148.337 50.4813H141.83V46.5821H147.697C148.874 46.5821 149.837 46.3776 150.587 45.9685C151.337 45.5594 151.891 44.9969 152.249 44.281C152.615 43.5651 152.798 42.7427 152.798 41.8137C152.798 40.8847 152.615 40.0665 152.249 39.3591C151.891 38.6517 151.332 38.102 150.574 37.71C149.824 37.3094 148.857 37.1091 147.672 37.1091H143.325V59.3279H138.582ZM161.546 59.3279V39.6915H166.033V42.9642H166.238C166.596 41.8307 167.209 40.9571 168.078 40.3435C168.956 39.7213 169.958 39.4103 171.083 39.4103C171.338 39.4103 171.624 39.4231 171.939 39.4486C172.263 39.4657 172.532 39.4955 172.745 39.5381V43.7952C172.549 43.727 172.238 43.6674 171.811 43.6162C171.394 43.5566 170.989 43.5267 170.597 43.5267C169.753 43.5267 168.995 43.71 168.321 44.0765C167.657 44.4344 167.132 44.933 166.749 45.5722C166.365 46.2114 166.174 46.9486 166.174 47.7838V59.3279H161.546ZM183.576 59.7114C181.658 59.7114 179.996 59.2895 178.59 58.4458C177.184 57.602 176.093 56.4216 175.317 54.9046C174.55 53.3875 174.167 51.6148 174.167 49.5864C174.167 47.558 174.55 45.781 175.317 44.2554C176.093 42.7299 177.184 41.5452 178.59 40.7015C179.996 39.8577 181.658 39.4358 183.576 39.4358C185.494 39.4358 187.156 39.8577 188.562 40.7015C189.968 41.5452 191.055 42.7299 191.822 44.2554C192.597 45.781 192.985 47.558 192.985 49.5864C192.985 51.6148 192.597 53.3875 191.822 54.9046C191.055 56.4216 189.968 57.602 188.562 58.4458C187.156 59.2895 185.494 59.7114 183.576 59.7114ZM183.602 56.004C184.641 56.004 185.511 55.7185 186.21 55.1475C186.908 54.5679 187.428 53.7924 187.769 52.8208C188.119 51.8492 188.293 50.7668 188.293 49.5736C188.293 48.3719 188.119 47.2853 187.769 46.3137C187.428 45.3336 186.908 44.5537 186.21 43.9742C185.511 43.3946 184.641 43.1049 183.602 43.1049C182.536 43.1049 181.65 43.3946 180.942 43.9742C180.244 44.5537 179.719 45.3336 179.37 46.3137C179.029 47.2853 178.859 48.3719 178.859 49.5736C178.859 50.7668 179.029 51.8492 179.37 52.8208C179.719 53.7924 180.244 54.5679 180.942 55.1475C181.65 55.7185 182.536 56.004 183.602 56.004ZM196.913 39.6915H201.541V60.4529C201.541 61.8677 201.272 63.0353 200.735 63.9557C200.199 64.8762 199.423 65.5623 198.409 66.014C197.395 66.4657 196.163 66.6915 194.714 66.6915C194.544 66.6915 194.386 66.6873 194.241 66.6787C194.096 66.6787 193.939 66.6745 193.768 66.6659V62.8946C193.896 62.9032 194.011 62.9074 194.113 62.9074C194.216 62.9159 194.322 62.9202 194.433 62.9202C195.319 62.9202 195.954 62.7029 196.338 62.2682C196.721 61.8421 196.913 61.2157 196.913 60.389V39.6915ZM199.214 36.9046C198.473 36.9046 197.838 36.6617 197.309 36.1759C196.789 35.6816 196.529 35.0892 196.529 34.3989C196.529 33.7 196.789 33.1077 197.309 32.6219C197.838 32.1276 198.473 31.8804 199.214 31.8804C199.947 31.8804 200.574 32.1276 201.093 32.6219C201.622 33.1077 201.886 33.7 201.886 34.3989C201.886 35.0892 201.622 35.6816 201.093 36.1759C200.574 36.6617 199.947 36.9046 199.214 36.9046ZM214.993 59.7114C213.024 59.7114 211.324 59.3023 209.892 58.4841C208.469 57.6574 207.374 56.4898 206.607 54.9813C205.839 53.4642 205.456 51.6787 205.456 49.6248C205.456 47.6049 205.839 45.8321 206.607 44.3066C207.382 42.7725 208.464 41.5793 209.854 40.727C211.243 39.8662 212.875 39.4358 214.75 39.4358C215.96 39.4358 217.102 39.6319 218.176 40.0239C219.259 40.4074 220.213 41.004 221.04 41.8137C221.875 42.6233 222.531 43.6546 223.009 44.9074C223.486 46.1517 223.724 47.6347 223.724 49.3563V50.7753H207.629V47.656H219.288C219.28 46.7696 219.088 45.9813 218.713 45.2909C218.338 44.5921 217.814 44.0424 217.141 43.6418C216.476 43.2412 215.7 43.0409 214.814 43.0409C213.868 43.0409 213.037 43.2711 212.321 43.7313C211.605 44.183 211.047 44.7796 210.646 45.5211C210.254 46.254 210.054 47.0594 210.045 47.9373V50.6603C210.045 51.8023 210.254 52.7824 210.672 53.6006C211.089 54.4103 211.673 55.0324 212.423 55.4671C213.173 55.8932 214.051 56.1063 215.057 56.1063C215.73 56.1063 216.339 56.0125 216.885 55.825C217.43 55.629 217.903 55.3435 218.304 54.9685C218.705 54.5935 219.007 54.129 219.212 53.575L223.533 54.0608C223.26 55.2029 222.74 56.2 221.973 57.0523C221.214 57.8961 220.243 58.5523 219.058 59.0211C217.874 59.4813 216.518 59.7114 214.993 59.7114ZM237.445 39.6915V43.2711H226.157V39.6915H237.445ZM228.944 34.987H233.571V53.4216C233.571 54.0438 233.665 54.5211 233.853 54.8534C234.049 55.1773 234.304 55.3989 234.62 55.5182C234.935 55.6375 235.284 55.6972 235.668 55.6972C235.958 55.6972 236.222 55.6759 236.461 55.6333C236.708 55.5907 236.895 55.5523 237.023 55.5182L237.803 59.1361C237.556 59.2213 237.202 59.3151 236.742 59.4174C236.29 59.5196 235.736 59.5793 235.08 59.5963C233.921 59.6304 232.877 59.4557 231.948 59.0722C231.019 58.6802 230.282 58.075 229.736 57.2569C229.199 56.4387 228.935 55.4159 228.944 54.1887V34.987ZM249.67 59.7114C247.752 59.7114 246.09 59.2895 244.684 58.4458C243.278 57.602 242.187 56.4216 241.411 54.9046C240.644 53.3875 240.261 51.6148 240.261 49.5864C240.261 47.558 240.644 45.781 241.411 44.2554C242.187 42.7299 243.278 41.5452 244.684 40.7015C246.09 39.8577 247.752 39.4358 249.67 39.4358C251.587 39.4358 253.249 39.8577 254.656 40.7015C256.062 41.5452 257.148 42.7299 257.915 44.2554C258.691 45.781 259.079 47.558 259.079 49.5864C259.079 51.6148 258.691 53.3875 257.915 54.9046C257.148 56.4216 256.062 57.602 254.656 58.4458C253.249 59.2895 251.587 59.7114 249.67 59.7114ZM249.695 56.004C250.735 56.004 251.604 55.7185 252.303 55.1475C253.002 54.5679 253.522 53.7924 253.863 52.8208C254.212 51.8492 254.387 50.7668 254.387 49.5736C254.387 48.3719 254.212 47.2853 253.863 46.3137C253.522 45.3336 253.002 44.5537 252.303 43.9742C251.604 43.3946 250.735 43.1049 249.695 43.1049C248.63 43.1049 247.744 43.3946 247.036 43.9742C246.337 44.5537 245.813 45.3336 245.464 46.3137C245.123 47.2853 244.952 48.3719 244.952 49.5736C244.952 50.7668 245.123 51.8492 245.464 52.8208C245.813 53.7924 246.337 54.5679 247.036 55.1475C247.744 55.7185 248.63 56.004 249.695 56.004ZM281.882 39.6915V43.2711H270.275V39.6915H281.882ZM273.176 59.3279V37.8378C273.176 36.5168 273.449 35.4174 273.995 34.5395C274.549 33.6617 275.29 33.0054 276.219 32.5708C277.148 32.1361 278.179 31.9188 279.313 31.9188C280.114 31.9188 280.826 31.9827 281.448 32.1106C282.07 32.2384 282.53 32.3534 282.828 32.4557L281.908 36.0353C281.712 35.9756 281.465 35.9159 281.167 35.8563C280.868 35.7881 280.536 35.754 280.169 35.754C279.309 35.754 278.699 35.9628 278.341 36.3804C277.992 36.7895 277.817 37.3776 277.817 38.1446V59.3279H273.176ZM285.507 59.3279V39.6915H290.135V59.3279H285.507ZM287.833 36.9046C287.1 36.9046 286.47 36.6617 285.941 36.1759C285.413 35.6816 285.149 35.0892 285.149 34.3989C285.149 33.7 285.413 33.1077 285.941 32.6219C286.47 32.1276 287.1 31.8804 287.833 31.8804C288.575 31.8804 289.206 32.1276 289.725 32.6219C290.254 33.1077 290.518 33.7 290.518 34.3989C290.518 35.0892 290.254 35.6816 289.725 36.1759C289.206 36.6617 288.575 36.9046 287.833 36.9046ZM303.459 59.7114C301.499 59.7114 299.815 59.281 298.409 58.4202C297.011 57.5594 295.933 56.3705 295.175 54.8534C294.425 53.3279 294.05 51.5722 294.05 49.5864C294.05 47.5921 294.433 45.8321 295.2 44.3066C295.967 42.7725 297.05 41.5793 298.447 40.727C299.854 39.8662 301.516 39.4358 303.433 39.4358C305.027 39.4358 306.438 39.7299 307.665 40.3179C308.901 40.8975 309.885 41.7199 310.618 42.7853C311.351 43.8421 311.768 45.0779 311.871 46.4927H307.447C307.268 45.5466 306.842 44.7583 306.169 44.1276C305.504 43.4884 304.614 43.1688 303.497 43.1688C302.551 43.1688 301.72 43.4245 301.004 43.9358C300.288 44.4387 299.73 45.1631 299.33 46.1091C298.938 47.0552 298.741 48.1887 298.741 49.5097C298.741 50.8478 298.938 51.9983 299.33 52.9614C299.722 53.9159 300.271 54.6532 300.979 55.1731C301.695 55.6844 302.534 55.9401 303.497 55.9401C304.179 55.9401 304.788 55.8123 305.325 55.5566C305.871 55.2924 306.327 54.9131 306.693 54.4188C307.06 53.9245 307.311 53.3236 307.447 52.6162H311.871C311.76 54.0054 311.351 55.237 310.643 56.3108C309.936 57.3762 308.973 58.2114 307.754 58.8165C306.536 59.4131 305.104 59.7114 303.459 59.7114ZM325.476 39.6915V43.2711H314.188V39.6915H325.476ZM316.975 34.987H321.603V53.4216C321.603 54.0438 321.696 54.5211 321.884 54.8534C322.08 55.1773 322.336 55.3989 322.651 55.5182C322.966 55.6375 323.316 55.6972 323.699 55.6972C323.989 55.6972 324.253 55.6759 324.492 55.6333C324.739 55.5907 324.926 55.5523 325.054 55.5182L325.834 59.1361C325.587 59.2213 325.233 59.3151 324.773 59.4174C324.321 59.5196 323.767 59.5793 323.111 59.5963C321.952 59.6304 320.908 59.4557 319.979 59.0722C319.05 58.6802 318.313 58.075 317.767 57.2569C317.23 56.4387 316.966 55.4159 316.975 54.1887V34.987ZM329.347 59.3279V39.6915H333.974V59.3279H329.347ZM329.896 37.1091L332.76 31.2668H337.286L333.361 37.1091H329.896ZM347.299 59.7114C345.338 59.7114 343.655 59.281 342.249 58.4202C340.851 57.5594 339.773 56.3705 339.015 54.8534C338.265 53.3279 337.89 51.5722 337.89 49.5864C337.89 47.5921 338.273 45.8321 339.04 44.3066C339.807 42.7725 340.89 41.5793 342.287 40.727C343.694 39.8662 345.355 39.4358 347.273 39.4358C348.867 39.4358 350.277 39.7299 351.505 40.3179C352.74 40.8975 353.725 41.7199 354.458 42.7853C355.191 43.8421 355.608 45.0779 355.711 46.4927H351.287C351.108 45.5466 350.682 44.7583 350.009 44.1276C349.344 43.4884 348.453 43.1688 347.337 43.1688C346.391 43.1688 345.56 43.4245 344.844 43.9358C344.128 44.4387 343.57 45.1631 343.169 46.1091C342.777 47.0552 342.581 48.1887 342.581 49.5097C342.581 50.8478 342.777 51.9983 343.169 52.9614C343.561 53.9159 344.111 54.6532 344.819 55.1731C345.534 55.6844 346.374 55.9401 347.337 55.9401C348.019 55.9401 348.628 55.8123 349.165 55.5566C349.711 55.2924 350.167 54.9131 350.533 54.4188C350.9 53.9245 351.151 53.3236 351.287 52.6162H355.711C355.6 54.0054 355.191 55.237 354.483 56.3108C353.776 57.3762 352.813 58.2114 351.594 58.8165C350.375 59.4131 348.944 59.7114 347.299 59.7114ZM359.511 59.3279V39.6915H364.138V59.3279H359.511ZM361.837 36.9046C361.104 36.9046 360.474 36.6617 359.945 36.1759C359.417 35.6816 359.153 35.0892 359.153 34.3989C359.153 33.7 359.417 33.1077 359.945 32.6219C360.474 32.1276 361.104 31.8804 361.837 31.8804C362.579 31.8804 363.21 32.1276 363.729 32.6219C364.258 33.1077 364.522 33.7 364.522 34.3989C364.522 35.0892 364.258 35.6816 363.729 36.1759C363.21 36.6617 362.579 36.9046 361.837 36.9046ZM377.463 59.7114C375.545 59.7114 373.883 59.2895 372.477 58.4458C371.071 57.602 369.98 56.4216 369.204 54.9046C368.437 53.3875 368.054 51.6148 368.054 49.5864C368.054 47.558 368.437 45.781 369.204 44.2554C369.98 42.7299 371.071 41.5452 372.477 40.7015C373.883 39.8577 375.545 39.4358 377.463 39.4358C379.38 39.4358 381.042 39.8577 382.449 40.7015C383.855 41.5452 384.941 42.7299 385.708 44.2554C386.484 45.781 386.872 47.558 386.872 49.5864C386.872 51.6148 386.484 53.3875 385.708 54.9046C384.941 56.4216 383.855 57.602 382.449 58.4458C381.042 59.2895 379.38 59.7114 377.463 59.7114ZM377.488 56.004C378.528 56.004 379.397 55.7185 380.096 55.1475C380.795 54.5679 381.315 53.7924 381.656 52.8208C382.005 51.8492 382.18 50.7668 382.18 49.5736C382.18 48.3719 382.005 47.2853 381.656 46.3137C381.315 45.3336 380.795 44.5537 380.096 43.9742C379.397 43.3946 378.528 43.1049 377.488 43.1049C376.423 43.1049 375.537 43.3946 374.829 43.9742C374.13 44.5537 373.606 45.3336 373.257 46.3137C372.916 47.2853 372.745 48.3719 372.745 49.5736C372.745 50.7668 372.916 51.8492 373.257 52.8208C373.606 53.7924 374.13 54.5679 374.829 55.1475C375.537 55.7185 376.423 56.004 377.488 56.004ZM393.651 59.6091C392.875 59.6091 392.21 59.3364 391.656 58.7909C391.102 58.2455 390.83 57.5807 390.838 56.7966C390.83 56.0296 391.102 55.3733 391.656 54.8279C392.21 54.2824 392.875 54.0097 393.651 54.0097C394.401 54.0097 395.053 54.2824 395.607 54.8279C396.169 55.3733 396.455 56.0296 396.463 56.7966C396.455 57.3165 396.318 57.7895 396.054 58.2157C395.798 58.6418 395.457 58.9827 395.031 59.2384C394.614 59.4856 394.153 59.6091 393.651 59.6091Z" fill="#0A0A0A"/>
<path d="M144.744 95.5097C144.668 94.862 144.357 94.3591 143.811 94.0012C143.266 93.6432 142.597 93.4642 141.804 93.4642C141.224 93.4642 140.717 93.558 140.283 93.7455C139.852 93.933 139.516 94.1908 139.273 94.5189C139.034 94.8471 138.915 95.2199 138.915 95.6375C138.915 95.987 138.998 96.2874 139.164 96.5388C139.335 96.786 139.552 96.9927 139.816 97.1588C140.08 97.3208 140.357 97.455 140.647 97.5615C140.937 97.6638 141.203 97.7469 141.446 97.8108L142.776 98.1688C143.116 98.2583 143.496 98.3819 143.913 98.5395C144.335 98.6972 144.738 98.9124 145.121 99.1851C145.509 99.4536 145.829 99.7988 146.08 100.221C146.332 100.643 146.457 101.16 146.457 101.774C146.457 102.481 146.272 103.12 145.901 103.692C145.535 104.263 144.998 104.716 144.29 105.053C143.587 105.39 142.733 105.558 141.727 105.558C140.79 105.558 139.978 105.407 139.292 105.104C138.61 104.802 138.073 104.38 137.681 103.839C137.293 103.297 137.074 102.669 137.023 101.953H138.659C138.702 102.447 138.868 102.856 139.158 103.18C139.452 103.5 139.822 103.738 140.27 103.896C140.722 104.049 141.207 104.126 141.727 104.126C142.332 104.126 142.876 104.028 143.357 103.832C143.839 103.632 144.22 103.355 144.501 103.001C144.783 102.643 144.923 102.226 144.923 101.748C144.923 101.314 144.802 100.96 144.559 100.687C144.316 100.415 143.996 100.193 143.6 100.022C143.204 99.852 142.776 99.7029 142.315 99.575L140.705 99.1148C139.682 98.8208 138.872 98.401 138.276 97.8556C137.679 97.3101 137.381 96.5963 137.381 95.7142C137.381 94.9813 137.579 94.3421 137.975 93.7966C138.376 93.2469 138.913 92.8208 139.586 92.5182C140.263 92.2114 141.02 92.058 141.855 92.058C142.699 92.058 143.449 92.2093 144.105 92.5118C144.761 92.8101 145.281 93.2192 145.665 93.7391C146.053 94.259 146.257 94.8492 146.278 95.5097H144.744ZM152.976 105.532C152.03 105.532 151.214 105.324 150.528 104.906C149.846 104.484 149.319 103.896 148.949 103.142C148.582 102.383 148.399 101.501 148.399 100.495C148.399 99.4898 148.582 98.6034 148.949 97.8364C149.319 97.0651 149.835 96.4642 150.496 96.0338C151.16 95.5992 151.936 95.3819 152.822 95.3819C153.334 95.3819 153.839 95.4671 154.337 95.6375C154.836 95.808 155.29 96.085 155.699 96.4685C156.108 96.8478 156.434 97.3506 156.677 97.977C156.92 98.6034 157.041 99.3748 157.041 100.291V100.93H149.473V99.6262H155.507C155.507 99.0722 155.396 98.5779 155.175 98.1432C154.957 97.7086 154.646 97.3655 154.241 97.1141C153.841 96.8627 153.368 96.737 152.822 96.737C152.221 96.737 151.702 96.8861 151.263 97.1844C150.828 97.4784 150.493 97.862 150.259 98.335C150.025 98.808 149.907 99.3151 149.907 99.8563V100.726C149.907 101.467 150.035 102.096 150.291 102.611C150.551 103.123 150.911 103.513 151.371 103.781C151.831 104.045 152.366 104.177 152.976 104.177C153.372 104.177 153.73 104.122 154.05 104.011C154.373 103.896 154.653 103.726 154.887 103.5C155.121 103.27 155.302 102.984 155.43 102.643L156.888 103.052C156.734 103.547 156.476 103.981 156.114 104.356C155.752 104.727 155.305 105.017 154.772 105.226C154.239 105.43 153.64 105.532 152.976 105.532ZM165.523 101.314V95.5097H167.032V105.328H165.523V103.666H165.421C165.191 104.165 164.833 104.589 164.347 104.938C163.861 105.283 163.248 105.456 162.506 105.456C161.893 105.456 161.347 105.321 160.87 105.053C160.393 104.78 160.018 104.371 159.745 103.826C159.472 103.276 159.336 102.584 159.336 101.748V95.5097H160.844V101.646C160.844 102.362 161.045 102.933 161.445 103.359C161.85 103.785 162.366 103.998 162.992 103.998C163.367 103.998 163.748 103.902 164.136 103.711C164.528 103.519 164.856 103.225 165.121 102.829C165.389 102.432 165.523 101.927 165.523 101.314ZM178.846 105.532C177.925 105.532 177.133 105.315 176.468 104.88C175.803 104.446 175.292 103.847 174.934 103.084C174.576 102.321 174.397 101.45 174.397 100.47C174.397 99.4728 174.58 98.5928 174.947 97.83C175.317 97.063 175.833 96.4642 176.494 96.0338C177.158 95.5992 177.934 95.3819 178.82 95.3819C179.511 95.3819 180.133 95.5097 180.687 95.7654C181.241 96.0211 181.695 96.379 182.048 96.8392C182.402 97.2995 182.621 97.8364 182.707 98.45H181.198C181.083 98.0026 180.827 97.6063 180.431 97.2611C180.039 96.9117 179.511 96.737 178.846 96.737C178.258 96.737 177.742 96.8904 177.299 97.1972C176.86 97.4998 176.517 97.928 176.27 98.482C176.027 99.0317 175.906 99.6773 175.906 100.419C175.906 101.177 176.025 101.838 176.263 102.4C176.506 102.963 176.847 103.4 177.286 103.711C177.729 104.022 178.249 104.177 178.846 104.177C179.238 104.177 179.594 104.109 179.913 103.973C180.233 103.836 180.504 103.64 180.725 103.385C180.947 103.129 181.104 102.822 181.198 102.464H182.707C182.621 103.044 182.411 103.566 182.074 104.03C181.741 104.491 181.3 104.857 180.751 105.13C180.205 105.398 179.57 105.532 178.846 105.532ZM188.901 105.532C188.014 105.532 187.237 105.321 186.567 104.9C185.903 104.478 185.383 103.888 185.008 103.129C184.637 102.37 184.452 101.484 184.452 100.47C184.452 99.4472 184.637 98.5544 185.008 97.7917C185.383 97.0289 185.903 96.4365 186.567 96.0147C187.237 95.5928 188.014 95.3819 188.901 95.3819C189.787 95.3819 190.563 95.5928 191.227 96.0147C191.896 96.4365 192.416 97.0289 192.787 97.7917C193.162 98.5544 193.349 99.4472 193.349 100.47C193.349 101.484 193.162 102.37 192.787 103.129C192.416 103.888 191.896 104.478 191.227 104.9C190.563 105.321 189.787 105.532 188.901 105.532ZM188.901 104.177C189.574 104.177 190.128 104.005 190.562 103.66C190.997 103.314 191.319 102.861 191.528 102.298C191.737 101.736 191.841 101.126 191.841 100.47C191.841 99.8137 191.737 99.2022 191.528 98.6354C191.319 98.0686 190.997 97.6106 190.562 97.2611C190.128 96.9117 189.574 96.737 188.901 96.737C188.227 96.737 187.673 96.9117 187.239 97.2611C186.804 97.6106 186.482 98.0686 186.273 98.6354C186.065 99.2022 185.96 99.8137 185.96 100.47C185.96 101.126 186.065 101.736 186.273 102.298C186.482 102.861 186.804 103.314 187.239 103.66C187.673 104.005 188.227 104.177 188.901 104.177ZM188.21 94.1802L189.77 91.2142H191.534L189.54 94.1802H188.21ZM199.36 105.532C198.541 105.532 197.819 105.326 197.193 104.912C196.566 104.495 196.076 103.907 195.722 103.148C195.369 102.385 195.192 101.484 195.192 100.444C195.192 99.4131 195.369 98.5182 195.722 97.7597C196.076 97.0012 196.568 96.4152 197.199 96.0019C197.83 95.5885 198.558 95.3819 199.385 95.3819C200.024 95.3819 200.529 95.4884 200.9 95.7015C201.275 95.9103 201.561 96.1489 201.757 96.4174C201.957 96.6816 202.112 96.8989 202.223 97.0694H202.351V92.237H203.86V105.328H202.402V103.819H202.223C202.112 103.998 201.955 104.224 201.75 104.497C201.546 104.765 201.254 105.006 200.874 105.219C200.495 105.428 199.99 105.532 199.36 105.532ZM199.564 104.177C200.169 104.177 200.681 104.02 201.098 103.704C201.516 103.385 201.833 102.944 202.051 102.381C202.268 101.814 202.377 101.16 202.377 100.419C202.377 99.6858 202.27 99.0445 202.057 98.4948C201.844 97.9408 201.529 97.5104 201.111 97.2036C200.693 96.8925 200.178 96.737 199.564 96.737C198.925 96.737 198.392 96.901 197.966 97.2292C197.544 97.553 197.227 97.9941 197.014 98.5523C196.805 99.1063 196.7 99.7284 196.7 100.419C196.7 101.118 196.807 101.753 197.02 102.324C197.237 102.89 197.557 103.342 197.979 103.679C198.405 104.011 198.933 104.177 199.564 104.177ZM206.832 105.328V95.5097H208.34V105.328H206.832ZM207.599 93.8733C207.305 93.8733 207.051 93.7732 206.838 93.5729C206.629 93.3726 206.525 93.1319 206.525 92.8506C206.525 92.5694 206.629 92.3286 206.838 92.1283C207.051 91.928 207.305 91.8279 207.599 91.8279C207.893 91.8279 208.144 91.928 208.353 92.1283C208.566 92.3286 208.673 92.5694 208.673 92.8506C208.673 93.1319 208.566 93.3726 208.353 93.5729C208.144 93.7732 207.893 93.8733 207.599 93.8733ZM215.066 109.214C214.338 109.214 213.711 109.12 213.187 108.933C212.663 108.75 212.226 108.507 211.877 108.204C211.532 107.906 211.257 107.586 211.052 107.245L212.254 106.402C212.39 106.581 212.563 106.785 212.772 107.015C212.98 107.25 213.266 107.452 213.628 107.623C213.995 107.797 214.474 107.885 215.066 107.885C215.859 107.885 216.513 107.693 217.029 107.309C217.544 106.926 217.802 106.325 217.802 105.507V103.513H217.674C217.564 103.692 217.406 103.913 217.201 104.177C217.001 104.437 216.711 104.67 216.332 104.874C215.957 105.074 215.45 105.174 214.811 105.174C214.018 105.174 213.306 104.987 212.676 104.612C212.049 104.237 211.553 103.692 211.186 102.976C210.824 102.26 210.643 101.39 210.643 100.368C210.643 99.362 210.82 98.4863 211.174 97.7405C211.527 96.9905 212.02 96.411 212.65 96.0019C213.281 95.5885 214.01 95.3819 214.836 95.3819C215.475 95.3819 215.983 95.4884 216.358 95.7015C216.737 95.9103 217.027 96.1489 217.227 96.4174C217.431 96.6816 217.589 96.8989 217.7 97.0694H217.853V95.5097H219.311V105.609C219.311 106.453 219.119 107.139 218.735 107.667C218.356 108.2 217.845 108.59 217.201 108.837C216.562 109.089 215.85 109.214 215.066 109.214ZM215.015 103.819C215.62 103.819 216.132 103.681 216.549 103.404C216.967 103.127 217.284 102.728 217.502 102.209C217.719 101.689 217.828 101.067 217.828 100.342C217.828 99.6347 217.721 99.0104 217.508 98.4692C217.295 97.928 216.98 97.504 216.562 97.1972C216.145 96.8904 215.629 96.737 215.015 96.737C214.376 96.737 213.843 96.8989 213.417 97.2228C212.995 97.5466 212.678 97.9813 212.465 98.5267C212.256 99.0722 212.152 99.6773 212.152 100.342C212.152 101.024 212.258 101.627 212.471 102.151C212.689 102.671 213.008 103.08 213.43 103.378C213.856 103.672 214.385 103.819 215.015 103.819ZM226.061 105.532C225.174 105.532 224.397 105.321 223.728 104.9C223.063 104.478 222.543 103.888 222.168 103.129C221.797 102.37 221.612 101.484 221.612 100.47C221.612 99.4472 221.797 98.5544 222.168 97.7917C222.543 97.0289 223.063 96.4365 223.728 96.0147C224.397 95.5928 225.174 95.3819 226.061 95.3819C226.947 95.3819 227.723 95.5928 228.387 96.0147C229.056 96.4365 229.576 97.0289 229.947 97.7917C230.322 98.5544 230.51 99.4472 230.51 100.47C230.51 101.484 230.322 102.37 229.947 103.129C229.576 103.888 229.056 104.478 228.387 104.9C227.723 105.321 226.947 105.532 226.061 105.532ZM226.061 104.177C226.734 104.177 227.288 104.005 227.723 103.66C228.157 103.314 228.479 102.861 228.688 102.298C228.897 101.736 229.001 101.126 229.001 100.47C229.001 99.8137 228.897 99.2022 228.688 98.6354C228.479 98.0686 228.157 97.6106 227.723 97.2611C227.288 96.9117 226.734 96.737 226.061 96.737C225.387 96.737 224.833 96.9117 224.399 97.2611C223.964 97.6106 223.642 98.0686 223.434 98.6354C223.225 99.2022 223.12 99.8137 223.12 100.47C223.12 101.126 223.225 101.736 223.434 102.298C223.642 102.861 223.964 103.314 224.399 103.66C224.833 104.005 225.387 104.177 226.061 104.177ZM244.829 97.7086L243.474 98.0921C243.389 97.8662 243.263 97.6468 243.097 97.4337C242.935 97.2164 242.714 97.0374 242.432 96.8968C242.151 96.7561 241.791 96.6858 241.352 96.6858C240.751 96.6858 240.251 96.8243 239.85 97.1013C239.454 97.374 239.256 97.7213 239.256 98.1432C239.256 98.5182 239.392 98.8144 239.665 99.0317C239.937 99.249 240.363 99.4302 240.943 99.575L242.4 99.933C243.278 100.146 243.932 100.472 244.363 100.911C244.793 101.346 245.008 101.906 245.008 102.592C245.008 103.155 244.846 103.657 244.523 104.101C244.203 104.544 243.756 104.893 243.18 105.149C242.605 105.405 241.936 105.532 241.173 105.532C240.172 105.532 239.343 105.315 238.687 104.88C238.03 104.446 237.615 103.811 237.44 102.976L238.872 102.618C239.008 103.146 239.266 103.542 239.645 103.807C240.029 104.071 240.53 104.203 241.148 104.203C241.851 104.203 242.409 104.054 242.822 103.755C243.24 103.453 243.449 103.091 243.449 102.669C243.449 102.328 243.329 102.042 243.091 101.812C242.852 101.578 242.486 101.403 241.991 101.288L240.355 100.905C239.456 100.692 238.795 100.361 238.373 99.9138C237.956 99.4621 237.747 98.8975 237.747 98.2199C237.747 97.6659 237.903 97.1759 238.214 96.7498C238.529 96.3236 238.957 95.9891 239.498 95.7462C240.044 95.5033 240.662 95.3819 241.352 95.3819C242.324 95.3819 243.086 95.5949 243.64 96.0211C244.199 96.4472 244.595 97.0097 244.829 97.7086ZM251.396 105.532C250.45 105.532 249.634 105.324 248.947 104.906C248.266 104.484 247.739 103.896 247.369 103.142C247.002 102.383 246.819 101.501 246.819 100.495C246.819 99.4898 247.002 98.6034 247.369 97.8364C247.739 97.0651 248.255 96.4642 248.915 96.0338C249.58 95.5992 250.356 95.3819 251.242 95.3819C251.754 95.3819 252.259 95.4671 252.757 95.6375C253.256 95.808 253.71 96.085 254.119 96.4685C254.528 96.8478 254.854 97.3506 255.097 97.977C255.339 98.6034 255.461 99.3748 255.461 100.291V100.93H247.893V99.6262H253.927C253.927 99.0722 253.816 98.5779 253.594 98.1432C253.377 97.7086 253.066 97.3655 252.661 97.1141C252.261 96.8627 251.788 96.737 251.242 96.737C250.641 96.737 250.121 96.8861 249.683 97.1844C249.248 97.4784 248.913 97.862 248.679 98.335C248.445 98.808 248.327 99.3151 248.327 99.8563V100.726C248.327 101.467 248.455 102.096 248.711 102.611C248.971 103.123 249.331 103.513 249.791 103.781C250.251 104.045 250.786 104.177 251.396 104.177C251.792 104.177 252.15 104.122 252.469 104.011C252.793 103.896 253.072 103.726 253.307 103.5C253.541 103.27 253.722 102.984 253.85 102.643L255.308 103.052C255.154 103.547 254.896 103.981 254.534 104.356C254.172 104.727 253.724 105.017 253.192 105.226C252.659 105.43 252.06 105.532 251.396 105.532ZM257.756 105.328V95.5097H259.213V96.9927H259.315C259.494 96.5069 259.818 96.1127 260.287 95.8101C260.756 95.5076 261.284 95.3563 261.872 95.3563C261.983 95.3563 262.121 95.3584 262.288 95.3627C262.454 95.3669 262.58 95.3733 262.665 95.3819V96.9159C262.614 96.9032 262.496 96.884 262.313 96.8584C262.134 96.8286 261.945 96.8137 261.744 96.8137C261.267 96.8137 260.841 96.9138 260.466 97.1141C260.095 97.3101 259.801 97.5829 259.584 97.9323C259.371 98.2775 259.264 98.6716 259.264 99.1148V105.328H257.756ZM267.342 105.558C266.72 105.558 266.155 105.441 265.648 105.206C265.141 104.968 264.738 104.625 264.44 104.177C264.142 103.726 263.993 103.18 263.993 102.541C263.993 101.978 264.104 101.522 264.325 101.173C264.547 100.819 264.843 100.542 265.214 100.342C265.584 100.142 265.993 99.9927 266.441 99.8946C266.893 99.7924 267.346 99.7114 267.802 99.6517C268.399 99.575 268.883 99.5175 269.253 99.4792C269.628 99.4365 269.901 99.3662 270.072 99.2682C270.246 99.1702 270.334 98.9998 270.334 98.7569V98.7057C270.334 98.075 270.161 97.585 269.816 97.2356C269.475 96.8861 268.957 96.7114 268.263 96.7114C267.542 96.7114 266.978 96.8691 266.569 97.1844C266.16 97.4998 265.872 97.8364 265.706 98.1944L264.274 97.683C264.53 97.0864 264.871 96.6219 265.297 96.2895C265.727 95.9529 266.196 95.7185 266.703 95.5864C267.214 95.45 267.717 95.3819 268.211 95.3819C268.527 95.3819 268.889 95.4202 269.298 95.4969C269.711 95.5694 270.11 95.7206 270.493 95.9507C270.881 96.1809 271.203 96.5282 271.459 96.9927C271.714 97.4571 271.842 98.0793 271.842 98.8591V105.328H270.334V103.998H270.257C270.155 104.211 269.984 104.439 269.746 104.682C269.507 104.925 269.189 105.132 268.793 105.302C268.397 105.473 267.913 105.558 267.342 105.558ZM267.572 104.203C268.169 104.203 268.672 104.086 269.081 103.851C269.494 103.617 269.805 103.314 270.014 102.944C270.227 102.573 270.334 102.183 270.334 101.774V100.393C270.27 100.47 270.129 100.54 269.912 100.604C269.699 100.664 269.452 100.717 269.17 100.764C268.893 100.807 268.623 100.845 268.358 100.879C268.099 100.909 267.888 100.934 267.726 100.956C267.334 101.007 266.967 101.09 266.626 101.205C266.29 101.316 266.017 101.484 265.808 101.71C265.604 101.932 265.501 102.234 265.501 102.618C265.501 103.142 265.695 103.538 266.083 103.807C266.475 104.071 266.971 104.203 267.572 104.203ZM267.623 94.1802L269.183 91.2142H270.947L268.953 94.1802H267.623ZM285.846 101.314V95.5097H287.354V105.328H285.846V103.666H285.743C285.513 104.165 285.155 104.589 284.669 104.938C284.184 105.283 283.57 105.456 282.828 105.456C282.215 105.456 281.669 105.321 281.192 105.053C280.715 104.78 280.34 104.371 280.067 103.826C279.794 103.276 279.658 102.584 279.658 101.748V95.5097H281.167V101.646C281.167 102.362 281.367 102.933 281.767 103.359C282.172 103.785 282.688 103.998 283.314 103.998C283.689 103.998 284.071 103.902 284.458 103.711C284.85 103.519 285.179 103.225 285.443 102.829C285.711 102.432 285.846 101.927 285.846 101.314ZM297.072 97.7086L295.716 98.0921C295.631 97.8662 295.506 97.6468 295.339 97.4337C295.177 97.2164 294.956 97.0374 294.675 96.8968C294.393 96.7561 294.033 96.6858 293.594 96.6858C292.993 96.6858 292.493 96.8243 292.092 97.1013C291.696 97.374 291.498 97.7213 291.498 98.1432C291.498 98.5182 291.634 98.8144 291.907 99.0317C292.18 99.249 292.606 99.4302 293.185 99.575L294.643 99.933C295.52 100.146 296.175 100.472 296.605 100.911C297.035 101.346 297.251 101.906 297.251 102.592C297.251 103.155 297.089 103.657 296.765 104.101C296.445 104.544 295.998 104.893 295.422 105.149C294.847 105.405 294.178 105.532 293.415 105.532C292.414 105.532 291.585 105.315 290.929 104.88C290.273 104.446 289.857 103.811 289.682 102.976L291.114 102.618C291.251 103.146 291.508 103.542 291.888 103.807C292.271 104.071 292.772 104.203 293.39 104.203C294.093 104.203 294.651 104.054 295.064 103.755C295.482 103.453 295.691 103.091 295.691 102.669C295.691 102.328 295.572 102.042 295.333 101.812C295.094 101.578 294.728 101.403 294.233 101.288L292.597 100.905C291.698 100.692 291.037 100.361 290.616 99.9138C290.198 99.4621 289.989 98.8975 289.989 98.2199C289.989 97.6659 290.145 97.1759 290.456 96.7498C290.771 96.3236 291.199 95.9891 291.741 95.7462C292.286 95.5033 292.904 95.3819 293.594 95.3819C294.566 95.3819 295.329 95.5949 295.883 96.0211C296.441 96.4472 296.837 97.0097 297.072 97.7086ZM302.411 105.558C301.788 105.558 301.224 105.441 300.717 105.206C300.21 104.968 299.807 104.625 299.509 104.177C299.21 103.726 299.061 103.18 299.061 102.541C299.061 101.978 299.172 101.522 299.393 101.173C299.615 100.819 299.911 100.542 300.282 100.342C300.653 100.142 301.062 99.9927 301.509 99.8946C301.961 99.7924 302.415 99.7114 302.871 99.6517C303.467 99.575 303.951 99.5175 304.322 99.4792C304.697 99.4365 304.969 99.3662 305.14 99.2682C305.315 99.1702 305.402 98.9998 305.402 98.7569V98.7057C305.402 98.075 305.229 97.585 304.884 97.2356C304.543 96.8861 304.026 96.7114 303.331 96.7114C302.611 96.7114 302.046 96.8691 301.637 97.1844C301.228 97.4998 300.94 97.8364 300.774 98.1944L299.342 97.683C299.598 97.0864 299.939 96.6219 300.365 96.2895C300.795 95.9529 301.264 95.7185 301.771 95.5864C302.283 95.45 302.786 95.3819 303.28 95.3819C303.595 95.3819 303.957 95.4202 304.366 95.4969C304.78 95.5694 305.178 95.7206 305.562 95.9507C305.95 96.1809 306.271 96.5282 306.527 96.9927C306.783 97.4571 306.911 98.0793 306.911 98.8591V105.328H305.402V103.998H305.325C305.223 104.211 305.053 104.439 304.814 104.682C304.575 104.925 304.258 105.132 303.862 105.302C303.465 105.473 302.982 105.558 302.411 105.558ZM302.641 104.203C303.237 104.203 303.74 104.086 304.149 103.851C304.563 103.617 304.874 103.314 305.082 102.944C305.295 102.573 305.402 102.183 305.402 101.774V100.393C305.338 100.47 305.197 100.54 304.98 100.604C304.767 100.664 304.52 100.717 304.239 100.764C303.962 100.807 303.691 100.845 303.427 100.879C303.167 100.909 302.956 100.934 302.794 100.956C302.402 101.007 302.036 101.09 301.695 101.205C301.358 101.316 301.085 101.484 300.876 101.71C300.672 101.932 300.57 102.234 300.57 102.618C300.57 103.142 300.763 103.538 301.151 103.807C301.543 104.071 302.04 104.203 302.641 104.203ZM313.371 105.532C312.553 105.532 311.831 105.326 311.204 104.912C310.578 104.495 310.088 103.907 309.734 103.148C309.381 102.385 309.204 101.484 309.204 100.444C309.204 99.4131 309.381 98.5182 309.734 97.7597C310.088 97.0012 310.58 96.4152 311.211 96.0019C311.841 95.5885 312.57 95.3819 313.397 95.3819C314.036 95.3819 314.541 95.4884 314.912 95.7015C315.287 95.9103 315.572 96.1489 315.768 96.4174C315.969 96.6816 316.124 96.8989 316.235 97.0694H316.363V92.237H317.871V105.328H316.414V103.819H316.235C316.124 103.998 315.966 104.224 315.762 104.497C315.557 104.765 315.265 105.006 314.886 105.219C314.507 105.428 314.002 105.532 313.371 105.532ZM313.576 104.177C314.181 104.177 314.692 104.02 315.11 103.704C315.528 103.385 315.845 102.944 316.062 102.381C316.28 101.814 316.388 101.16 316.388 100.419C316.388 99.6858 316.282 99.0445 316.069 98.4948C315.856 97.9408 315.54 97.5104 315.123 97.2036C314.705 96.8925 314.189 96.737 313.576 96.737C312.937 96.737 312.404 96.901 311.978 97.2292C311.556 97.553 311.238 97.9941 311.025 98.5523C310.817 99.1063 310.712 99.7284 310.712 100.419C310.712 101.118 310.819 101.753 311.032 102.324C311.249 102.89 311.569 103.342 311.991 103.679C312.417 104.011 312.945 104.177 313.576 104.177ZM324.832 105.532C323.946 105.532 323.168 105.321 322.499 104.9C321.834 104.478 321.314 103.888 320.939 103.129C320.569 102.37 320.383 101.484 320.383 100.47C320.383 99.4472 320.569 98.5544 320.939 97.7917C321.314 97.0289 321.834 96.4365 322.499 96.0147C323.168 95.5928 323.946 95.3819 324.832 95.3819C325.719 95.3819 326.494 95.5928 327.159 96.0147C327.828 96.4365 328.348 97.0289 328.719 97.7917C329.094 98.5544 329.281 99.4472 329.281 100.47C329.281 101.484 329.094 102.37 328.719 103.129C328.348 103.888 327.828 104.478 327.159 104.9C326.494 105.321 325.719 105.532 324.832 105.532ZM324.832 104.177C325.506 104.177 326.059 104.005 326.494 103.66C326.929 103.314 327.251 102.861 327.459 102.298C327.668 101.736 327.773 101.126 327.773 100.47C327.773 99.8137 327.668 99.2022 327.459 98.6354C327.251 98.0686 326.929 97.6106 326.494 97.2611C326.059 96.9117 325.506 96.737 324.832 96.737C324.159 96.737 323.605 96.9117 323.17 97.2611C322.736 97.6106 322.414 98.0686 322.205 98.6354C321.996 99.2022 321.892 99.8137 321.892 100.47C321.892 101.126 321.996 101.736 322.205 102.298C322.414 102.861 322.736 103.314 323.17 103.66C323.605 104.005 324.159 104.177 324.832 104.177ZM339.536 105.558C338.913 105.558 338.349 105.441 337.842 105.206C337.335 104.968 336.932 104.625 336.634 104.177C336.335 103.726 336.186 103.18 336.186 102.541C336.186 101.978 336.297 101.522 336.518 101.173C336.74 100.819 337.036 100.542 337.407 100.342C337.778 100.142 338.187 99.9927 338.634 99.8946C339.086 99.7924 339.54 99.7114 339.996 99.6517C340.592 99.575 341.076 99.5175 341.447 99.4792C341.822 99.4365 342.094 99.3662 342.265 99.2682C342.44 99.1702 342.527 98.9998 342.527 98.7569V98.7057C342.527 98.075 342.354 97.585 342.009 97.2356C341.668 96.8861 341.151 96.7114 340.456 96.7114C339.736 96.7114 339.171 96.8691 338.762 97.1844C338.353 97.4998 338.065 97.8364 337.899 98.1944L336.467 97.683C336.723 97.0864 337.064 96.6219 337.49 96.2895C337.92 95.9529 338.389 95.7185 338.896 95.5864C339.408 95.45 339.911 95.3819 340.405 95.3819C340.72 95.3819 341.082 95.4202 341.491 95.4969C341.905 95.5694 342.303 95.7206 342.687 95.9507C343.075 96.1809 343.396 96.5282 343.652 96.9927C343.908 97.4571 344.036 98.0793 344.036 98.8591V105.328H342.527V103.998H342.45C342.348 104.211 342.178 104.439 341.939 104.682C341.7 104.925 341.383 105.132 340.987 105.302C340.59 105.473 340.107 105.558 339.536 105.558ZM339.766 104.203C340.362 104.203 340.865 104.086 341.274 103.851C341.688 103.617 341.999 103.314 342.207 102.944C342.42 102.573 342.527 102.183 342.527 101.774V100.393C342.463 100.47 342.322 100.54 342.105 100.604C341.892 100.664 341.645 100.717 341.364 100.764C341.087 100.807 340.816 100.845 340.552 100.879C340.292 100.909 340.081 100.934 339.919 100.956C339.527 101.007 339.161 101.09 338.82 101.205C338.483 101.316 338.21 101.484 338.001 101.71C337.797 101.932 337.695 102.234 337.695 102.618C337.695 103.142 337.888 103.538 338.276 103.807C338.668 104.071 339.165 104.203 339.766 104.203ZM346.789 109.01V95.5097H348.246V97.0694H348.425C348.536 96.8989 348.689 96.6816 348.885 96.4174C349.086 96.1489 349.371 95.9103 349.742 95.7015C350.117 95.4884 350.624 95.3819 351.263 95.3819C352.09 95.3819 352.819 95.5885 353.449 96.0019C354.08 96.4152 354.572 97.0012 354.926 97.7597C355.28 98.5182 355.456 99.4131 355.456 100.444C355.456 101.484 355.28 102.385 354.926 103.148C354.572 103.907 354.082 104.495 353.456 104.912C352.829 105.326 352.107 105.532 351.289 105.532C350.658 105.532 350.153 105.428 349.774 105.219C349.395 105.006 349.103 104.765 348.898 104.497C348.694 104.224 348.536 103.998 348.425 103.819H348.297V109.01H346.789ZM348.272 100.419C348.272 101.16 348.381 101.814 348.598 102.381C348.815 102.944 349.133 103.385 349.55 103.704C349.968 104.02 350.479 104.177 351.084 104.177C351.715 104.177 352.241 104.011 352.663 103.679C353.089 103.342 353.409 102.89 353.622 102.324C353.839 101.753 353.948 101.118 353.948 100.419C353.948 99.7284 353.841 99.1063 353.628 98.5523C353.42 97.9941 353.102 97.553 352.676 97.2292C352.254 96.901 351.724 96.737 351.084 96.737C350.471 96.737 349.955 96.8925 349.537 97.2036C349.12 97.5104 348.805 97.9408 348.591 98.4948C348.378 99.0445 348.272 99.6858 348.272 100.419ZM361.874 105.532C360.928 105.532 360.112 105.324 359.426 104.906C358.744 104.484 358.218 103.896 357.847 103.142C357.481 102.383 357.297 101.501 357.297 100.495C357.297 99.4898 357.481 98.6034 357.847 97.8364C358.218 97.0651 358.733 96.4642 359.394 96.0338C360.059 95.5992 360.834 95.3819 361.721 95.3819C362.232 95.3819 362.737 95.4671 363.236 95.6375C363.734 95.808 364.188 96.085 364.597 96.4685C365.006 96.8478 365.332 97.3506 365.575 97.977C365.818 98.6034 365.939 99.3748 365.939 100.291V100.93H358.371V99.6262H364.405C364.405 99.0722 364.295 98.5779 364.073 98.1432C363.856 97.7086 363.545 97.3655 363.14 97.1141C362.739 96.8627 362.266 96.737 361.721 96.737C361.12 96.737 360.6 96.8861 360.161 97.1844C359.726 97.4784 359.392 97.862 359.157 98.335C358.923 98.808 358.806 99.3151 358.806 99.8563V100.726C358.806 101.467 358.934 102.096 359.189 102.611C359.449 103.123 359.809 103.513 360.27 103.781C360.73 104.045 361.265 104.177 361.874 104.177C362.27 104.177 362.628 104.122 362.948 104.011C363.272 103.896 363.551 103.726 363.785 103.5C364.02 103.27 364.201 102.984 364.329 102.643L365.786 103.052C365.633 103.547 365.375 103.981 365.013 104.356C364.65 104.727 364.203 105.017 363.67 105.226C363.138 105.43 362.539 105.532 361.874 105.532ZM369.743 99.4216V105.328H368.234V95.5097H369.692V97.0438H369.819C370.05 96.5452 370.399 96.1446 370.868 95.8421C371.336 95.5353 371.942 95.3819 372.683 95.3819C373.348 95.3819 373.93 95.5182 374.428 95.7909C374.927 96.0594 375.314 96.4685 375.591 97.0182C375.868 97.5637 376.007 98.254 376.007 99.0892V105.328H374.498V99.1915C374.498 98.4202 374.298 97.8194 373.898 97.389C373.497 96.9543 372.947 96.737 372.248 96.737C371.767 96.737 371.336 96.8414 370.957 97.0502C370.582 97.259 370.286 97.5637 370.069 97.9642C369.851 98.3648 369.743 98.8506 369.743 99.4216ZM381.653 105.558C381.031 105.558 380.466 105.441 379.959 105.206C379.452 104.968 379.049 104.625 378.751 104.177C378.452 103.726 378.303 103.18 378.303 102.541C378.303 101.978 378.414 101.522 378.636 101.173C378.857 100.819 379.153 100.542 379.524 100.342C379.895 100.142 380.304 99.9927 380.751 99.8946C381.203 99.7924 381.657 99.7114 382.113 99.6517C382.71 99.575 383.193 99.5175 383.564 99.4792C383.939 99.4365 384.212 99.3662 384.382 99.2682C384.557 99.1702 384.644 98.9998 384.644 98.7569V98.7057C384.644 98.075 384.472 97.585 384.126 97.2356C383.786 96.8861 383.268 96.7114 382.573 96.7114C381.853 96.7114 381.288 96.8691 380.879 97.1844C380.47 97.4998 380.183 97.8364 380.016 98.1944L378.585 97.683C378.84 97.0864 379.181 96.6219 379.607 96.2895C380.038 95.9529 380.506 95.7185 381.013 95.5864C381.525 95.45 382.028 95.3819 382.522 95.3819C382.837 95.3819 383.2 95.4202 383.609 95.4969C384.022 95.5694 384.42 95.7206 384.804 95.9507C385.192 96.1809 385.513 96.5282 385.769 96.9927C386.025 97.4571 386.153 98.0793 386.153 98.8591V105.328H384.644V103.998H384.567C384.465 104.211 384.295 104.439 384.056 104.682C383.817 104.925 383.5 105.132 383.104 105.302C382.707 105.473 382.224 105.558 381.653 105.558ZM381.883 104.203C382.479 104.203 382.982 104.086 383.391 103.851C383.805 103.617 384.116 103.314 384.325 102.944C384.538 102.573 384.644 102.183 384.644 101.774V100.393C384.58 100.47 384.44 100.54 384.222 100.604C384.009 100.664 383.762 100.717 383.481 100.764C383.204 100.807 382.933 100.845 382.669 100.879C382.409 100.909 382.198 100.934 382.036 100.956C381.644 101.007 381.278 101.09 380.937 101.205C380.6 101.316 380.327 101.484 380.119 101.71C379.914 101.932 379.812 102.234 379.812 102.618C379.812 103.142 380.006 103.538 380.393 103.807C380.786 104.071 381.282 104.203 381.883 104.203ZM395.861 97.7086L394.506 98.0921C394.42 97.8662 394.295 97.6468 394.128 97.4337C393.966 97.2164 393.745 97.0374 393.464 96.8968C393.182 96.7561 392.822 96.6858 392.383 96.6858C391.782 96.6858 391.282 96.8243 390.881 97.1013C390.485 97.374 390.287 97.7213 390.287 98.1432C390.287 98.5182 390.423 98.8144 390.696 99.0317C390.969 99.249 391.395 99.4302 391.974 99.575L393.432 99.933C394.309 100.146 394.964 100.472 395.394 100.911C395.824 101.346 396.04 101.906 396.04 102.592C396.04 103.155 395.878 103.657 395.554 104.101C395.234 104.544 394.787 104.893 394.211 105.149C393.636 105.405 392.967 105.532 392.204 105.532C391.203 105.532 390.374 105.315 389.718 104.88C389.062 104.446 388.646 103.811 388.471 102.976L389.903 102.618C390.04 103.146 390.297 103.542 390.677 103.807C391.06 104.071 391.561 104.203 392.179 104.203C392.882 104.203 393.44 104.054 393.854 103.755C394.271 103.453 394.48 103.091 394.48 102.669C394.48 102.328 394.361 102.042 394.122 101.812C393.883 101.578 393.517 101.403 393.023 101.288L391.386 100.905C390.487 100.692 389.827 100.361 389.405 99.9138C388.987 99.4621 388.778 98.8975 388.778 98.2199C388.778 97.6659 388.934 97.1759 389.245 96.7498C389.56 96.3236 389.988 95.9891 390.53 95.7462C391.075 95.5033 391.693 95.3819 392.383 95.3819C393.355 95.3819 394.118 95.5949 394.672 96.0211C395.23 96.4472 395.626 97.0097 395.861 97.7086ZM403.373 109.01V95.5097H404.83V97.0694H405.009C405.12 96.8989 405.273 96.6816 405.469 96.4174C405.67 96.1489 405.955 95.9103 406.326 95.7015C406.701 95.4884 407.208 95.3819 407.847 95.3819C408.674 95.3819 409.403 95.5885 410.033 96.0019C410.664 96.4152 411.156 97.0012 411.51 97.7597C411.864 98.5182 412.04 99.4131 412.04 100.444C412.04 101.484 411.864 102.385 411.51 103.148C411.156 103.907 410.666 104.495 410.04 104.912C409.413 105.326 408.691 105.532 407.873 105.532C407.242 105.532 406.737 105.428 406.358 105.219C405.979 105.006 405.687 104.765 405.482 104.497C405.278 104.224 405.12 103.998 405.009 103.819H404.881V109.01H403.373ZM404.856 100.419C404.856 101.16 404.964 101.814 405.182 102.381C405.399 102.944 405.717 103.385 406.134 103.704C406.552 104.02 407.063 104.177 407.668 104.177C408.299 104.177 408.825 104.011 409.247 103.679C409.673 103.342 409.993 102.89 410.206 102.324C410.423 101.753 410.532 101.118 410.532 100.419C410.532 99.7284 410.425 99.1063 410.212 98.5523C410.004 97.9941 409.686 97.553 409.26 97.2292C408.838 96.901 408.308 96.737 407.668 96.737C407.055 96.737 406.539 96.8925 406.121 97.2036C405.704 97.5104 405.388 97.9408 405.175 98.4948C404.962 99.0445 404.856 99.6858 404.856 100.419ZM417.231 105.558C416.609 105.558 416.044 105.441 415.537 105.206C415.03 104.968 414.627 104.625 414.329 104.177C414.031 103.726 413.881 103.18 413.881 102.541C413.881 101.978 413.992 101.522 414.214 101.173C414.435 100.819 414.732 100.542 415.102 100.342C415.473 100.142 415.882 99.9927 416.33 99.8946C416.781 99.7924 417.235 99.7114 417.691 99.6517C418.288 99.575 418.771 99.5175 419.142 99.4792C419.517 99.4365 419.79 99.3662 419.96 99.2682C420.135 99.1702 420.222 98.9998 420.222 98.7569V98.7057C420.222 98.075 420.05 97.585 419.705 97.2356C419.364 96.8861 418.846 96.7114 418.151 96.7114C417.431 96.7114 416.866 96.8691 416.457 97.1844C416.048 97.4998 415.761 97.8364 415.594 98.1944L414.163 97.683C414.418 97.0864 414.759 96.6219 415.185 96.2895C415.616 95.9529 416.085 95.7185 416.592 95.5864C417.103 95.45 417.606 95.3819 418.1 95.3819C418.415 95.3819 418.778 95.4202 419.187 95.4969C419.6 95.5694 419.999 95.7206 420.382 95.9507C420.77 96.1809 421.092 96.5282 421.347 96.9927C421.603 97.4571 421.731 98.0793 421.731 98.8591V105.328H420.222V103.998H420.146C420.043 104.211 419.873 104.439 419.634 104.682C419.396 104.925 419.078 105.132 418.682 105.302C418.286 105.473 417.802 105.558 417.231 105.558ZM417.461 104.203C418.058 104.203 418.56 104.086 418.969 103.851C419.383 103.617 419.694 103.314 419.903 102.944C420.116 102.573 420.222 102.183 420.222 101.774V100.393C420.158 100.47 420.018 100.54 419.8 100.604C419.587 100.664 419.34 100.717 419.059 100.764C418.782 100.807 418.511 100.845 418.247 100.879C417.987 100.909 417.776 100.934 417.614 100.956C417.222 101.007 416.856 101.09 416.515 101.205C416.178 101.316 415.906 101.484 415.697 101.71C415.492 101.932 415.39 102.234 415.39 102.618C415.39 103.142 415.584 103.538 415.972 103.807C416.364 104.071 416.86 104.203 417.461 104.203ZM424.484 105.328V95.5097H425.942V96.9927H426.044C426.223 96.5069 426.547 96.1127 427.015 95.8101C427.484 95.5076 428.013 95.3563 428.601 95.3563C428.711 95.3563 428.85 95.3584 429.016 95.3627C429.182 95.3669 429.308 95.3733 429.393 95.3819V96.9159C429.342 96.9032 429.225 96.884 429.042 96.8584C428.863 96.8286 428.673 96.8137 428.473 96.8137C427.996 96.8137 427.569 96.9138 427.194 97.1141C426.824 97.3101 426.53 97.5829 426.312 97.9323C426.099 98.2775 425.993 98.6716 425.993 99.1148V105.328H424.484ZM434.071 105.558C433.449 105.558 432.884 105.441 432.377 105.206C431.87 104.968 431.467 104.625 431.169 104.177C430.87 103.726 430.721 103.18 430.721 102.541C430.721 101.978 430.832 101.522 431.054 101.173C431.275 100.819 431.571 100.542 431.942 100.342C432.313 100.142 432.722 99.9927 433.169 99.8946C433.621 99.7924 434.075 99.7114 434.531 99.6517C435.127 99.575 435.611 99.5175 435.982 99.4792C436.357 99.4365 436.63 99.3662 436.8 99.2682C436.975 99.1702 437.062 98.9998 437.062 98.7569V98.7057C437.062 98.075 436.89 97.585 436.544 97.2356C436.203 96.8861 435.686 96.7114 434.991 96.7114C434.271 96.7114 433.706 96.8691 433.297 97.1844C432.888 97.4998 432.6 97.8364 432.434 98.1944L431.002 97.683C431.258 97.0864 431.599 96.6219 432.025 96.2895C432.456 95.9529 432.924 95.7185 433.431 95.5864C433.943 95.45 434.446 95.3819 434.94 95.3819C435.255 95.3819 435.618 95.4202 436.027 95.4969C436.44 95.5694 436.838 95.7206 437.222 95.9507C437.61 96.1809 437.931 96.5282 438.187 96.9927C438.443 97.4571 438.571 98.0793 438.571 98.8591V105.328H437.062V103.998H436.985C436.883 104.211 436.713 104.439 436.474 104.682C436.235 104.925 435.918 105.132 435.522 105.302C435.125 105.473 434.642 105.558 434.071 105.558ZM434.301 104.203C434.897 104.203 435.4 104.086 435.809 103.851C436.223 103.617 436.534 103.314 436.743 102.944C436.956 102.573 437.062 102.183 437.062 101.774V100.393C436.998 100.47 436.858 100.54 436.64 100.604C436.427 100.664 436.18 100.717 435.899 100.764C435.622 100.807 435.351 100.845 435.087 100.879C434.827 100.909 434.616 100.934 434.454 100.956C434.062 101.007 433.696 101.09 433.355 101.205C433.018 101.316 432.745 101.484 432.537 101.71C432.332 101.932 432.23 102.234 432.23 102.618C432.23 103.142 432.424 103.538 432.811 103.807C433.203 104.071 433.7 104.203 434.301 104.203ZM449.276 105.558C448.654 105.558 448.089 105.441 447.582 105.206C447.075 104.968 446.672 104.625 446.374 104.177C446.075 103.726 445.926 103.18 445.926 102.541C445.926 101.978 446.037 101.522 446.259 101.173C446.48 100.819 446.776 100.542 447.147 100.342C447.518 100.142 447.927 99.9927 448.374 99.8946C448.826 99.7924 449.28 99.7114 449.736 99.6517C450.333 99.575 450.816 99.5175 451.187 99.4792C451.562 99.4365 451.835 99.3662 452.005 99.2682C452.18 99.1702 452.267 98.9998 452.267 98.7569V98.7057C452.267 98.075 452.095 97.585 451.749 97.2356C451.409 96.8861 450.891 96.7114 450.196 96.7114C449.476 96.7114 448.911 96.8691 448.502 97.1844C448.093 97.4998 447.806 97.8364 447.639 98.1944L446.208 97.683C446.463 97.0864 446.804 96.6219 447.23 96.2895C447.661 95.9529 448.129 95.7185 448.637 95.5864C449.148 95.45 449.651 95.3819 450.145 95.3819C450.46 95.3819 450.823 95.4202 451.232 95.4969C451.645 95.5694 452.044 95.7206 452.427 95.9507C452.815 96.1809 453.137 96.5282 453.392 96.9927C453.648 97.4571 453.776 98.0793 453.776 98.8591V105.328H452.267V103.998H452.191C452.088 104.211 451.918 104.439 451.679 104.682C451.441 104.925 451.123 105.132 450.727 105.302C450.33 105.473 449.847 105.558 449.276 105.558ZM449.506 104.203C450.102 104.203 450.605 104.086 451.014 103.851C451.428 103.617 451.739 103.314 451.948 102.944C452.161 102.573 452.267 102.183 452.267 101.774V100.393C452.203 100.47 452.063 100.54 451.845 100.604C451.632 100.664 451.385 100.717 451.104 100.764C450.827 100.807 450.556 100.845 450.292 100.879C450.032 100.909 449.821 100.934 449.659 100.956C449.267 101.007 448.901 101.09 448.56 101.205C448.223 101.316 447.95 101.484 447.742 101.71C447.537 101.932 447.435 102.234 447.435 102.618C447.435 103.142 447.629 103.538 448.017 103.807C448.409 104.071 448.905 104.203 449.506 104.203ZM464.206 95.5097L460.575 105.328H459.041L455.411 95.5097H457.047L459.757 103.334H459.859L462.57 95.5097H464.206ZM468.787 105.558C468.165 105.558 467.601 105.441 467.094 105.206C466.586 104.968 466.184 104.625 465.885 104.177C465.587 103.726 465.438 103.18 465.438 102.541C465.438 101.978 465.549 101.522 465.77 101.173C465.992 100.819 466.288 100.542 466.659 100.342C467.03 100.142 467.439 99.9927 467.886 99.8946C468.338 99.7924 468.792 99.7114 469.248 99.6517C469.844 99.575 470.328 99.5175 470.699 99.4792C471.074 99.4365 471.346 99.3662 471.517 99.2682C471.692 99.1702 471.779 98.9998 471.779 98.7569V98.7057C471.779 98.075 471.606 97.585 471.261 97.2356C470.92 96.8861 470.403 96.7114 469.708 96.7114C468.988 96.7114 468.423 96.8691 468.014 97.1844C467.605 97.4998 467.317 97.8364 467.151 98.1944L465.719 97.683C465.975 97.0864 466.316 96.6219 466.742 96.2895C467.172 95.9529 467.641 95.7185 468.148 95.5864C468.66 95.45 469.162 95.3819 469.657 95.3819C469.972 95.3819 470.334 95.4202 470.743 95.4969C471.157 95.5694 471.555 95.7206 471.939 95.9507C472.327 96.1809 472.648 96.5282 472.904 96.9927C473.16 97.4571 473.287 98.0793 473.287 98.8591V105.328H471.779V103.998H471.702C471.6 104.211 471.43 104.439 471.191 104.682C470.952 104.925 470.635 105.132 470.238 105.302C469.842 105.473 469.358 105.558 468.787 105.558ZM469.018 104.203C469.614 104.203 470.117 104.086 470.526 103.851C470.939 103.617 471.251 103.314 471.459 102.944C471.672 102.573 471.779 102.183 471.779 101.774V100.393C471.715 100.47 471.574 100.54 471.357 100.604C471.144 100.664 470.897 100.717 470.616 100.764C470.339 100.807 470.068 100.845 469.804 100.879C469.544 100.909 469.333 100.934 469.171 100.956C468.779 101.007 468.412 101.09 468.072 101.205C467.735 101.316 467.462 101.484 467.253 101.71C467.049 101.932 466.947 102.234 466.947 102.618C466.947 103.142 467.14 103.538 467.528 103.807C467.92 104.071 468.417 104.203 469.018 104.203ZM477.549 92.237V105.328H476.041V92.237H477.549ZM480.312 105.328V95.5097H481.821V105.328H480.312ZM481.079 93.8733C480.785 93.8733 480.532 93.7732 480.319 93.5729C480.11 93.3726 480.006 93.1319 480.006 92.8506C480.006 92.5694 480.11 92.3286 480.319 92.1283C480.532 91.928 480.785 91.8279 481.079 91.8279C481.373 91.8279 481.625 91.928 481.834 92.1283C482.047 92.3286 482.153 92.5694 482.153 92.8506C482.153 93.1319 482.047 93.3726 481.834 93.5729C481.625 93.7732 481.373 93.8733 481.079 93.8733ZM487.473 105.558C486.851 105.558 486.286 105.441 485.779 105.206C485.272 104.968 484.869 104.625 484.571 104.177C484.273 103.726 484.124 103.18 484.124 102.541C484.124 101.978 484.234 101.522 484.456 101.173C484.678 100.819 484.974 100.542 485.344 100.342C485.715 100.142 486.124 99.9927 486.572 99.8946C487.023 99.7924 487.477 99.7114 487.933 99.6517C488.53 99.575 489.013 99.5175 489.384 99.4792C489.759 99.4365 490.032 99.3662 490.202 99.2682C490.377 99.1702 490.464 98.9998 490.464 98.7569V98.7057C490.464 98.075 490.292 97.585 489.947 97.2356C489.606 96.8861 489.088 96.7114 488.393 96.7114C487.673 96.7114 487.109 96.8691 486.7 97.1844C486.29 97.4998 486.003 97.8364 485.837 98.1944L484.405 97.683C484.661 97.0864 485.001 96.6219 485.428 96.2895C485.858 95.9529 486.327 95.7185 486.834 95.5864C487.345 95.45 487.848 95.3819 488.342 95.3819C488.658 95.3819 489.02 95.4202 489.429 95.4969C489.842 95.5694 490.241 95.7206 490.624 95.9507C491.012 96.1809 491.334 96.5282 491.589 96.9927C491.845 97.4571 491.973 98.0793 491.973 98.8591V105.328H490.464V103.998H490.388C490.286 104.211 490.115 104.439 489.876 104.682C489.638 104.925 489.32 105.132 488.924 105.302C488.528 105.473 488.044 105.558 487.473 105.558ZM487.703 104.203C488.3 104.203 488.803 104.086 489.212 103.851C489.625 103.617 489.936 103.314 490.145 102.944C490.358 102.573 490.464 102.183 490.464 101.774V100.393C490.401 100.47 490.26 100.54 490.043 100.604C489.83 100.664 489.582 100.717 489.301 100.764C489.024 100.807 488.754 100.845 488.489 100.879C488.229 100.909 488.018 100.934 487.857 100.956C487.464 101.007 487.098 101.09 486.757 101.205C486.42 101.316 486.148 101.484 485.939 101.71C485.734 101.932 485.632 102.234 485.632 102.618C485.632 103.142 485.826 103.538 486.214 103.807C486.606 104.071 487.102 104.203 487.703 104.203ZM498.715 105.532C497.795 105.532 497.002 105.315 496.337 104.88C495.672 104.446 495.161 103.847 494.803 103.084C494.445 102.321 494.266 101.45 494.266 100.47C494.266 99.4728 494.449 98.5928 494.816 97.83C495.187 97.063 495.702 96.4642 496.363 96.0338C497.028 95.5992 497.803 95.3819 498.689 95.3819C499.38 95.3819 500.002 95.5097 500.556 95.7654C501.11 96.0211 501.564 96.379 501.917 96.8392C502.271 97.2995 502.491 97.8364 502.576 98.45H501.067C500.952 98.0026 500.697 97.6063 500.3 97.2611C499.908 96.9117 499.38 96.737 498.715 96.737C498.127 96.737 497.611 96.8904 497.168 97.1972C496.729 97.4998 496.386 97.928 496.139 98.482C495.896 99.0317 495.775 99.6773 495.775 100.419C495.775 101.177 495.894 101.838 496.133 102.4C496.376 102.963 496.716 103.4 497.155 103.711C497.599 104.022 498.118 104.177 498.715 104.177C499.107 104.177 499.463 104.109 499.782 103.973C500.102 103.836 500.373 103.64 500.594 103.385C500.816 103.129 500.974 102.822 501.067 102.464H502.576C502.491 103.044 502.28 103.566 501.943 104.03C501.611 104.491 501.17 104.857 500.62 105.13C500.074 105.398 499.439 105.532 498.715 105.532ZM497.999 105.277H499.252L499.15 105.788C499.482 105.839 499.787 105.978 500.064 106.204C500.341 106.434 500.479 106.798 500.479 107.297C500.479 107.846 500.251 108.294 499.795 108.639C499.344 108.988 498.677 109.163 497.795 109.163L497.743 108.166C498.14 108.166 498.468 108.102 498.728 107.974C498.992 107.851 499.124 107.642 499.124 107.348C499.124 107.054 499.015 106.853 498.798 106.747C498.581 106.64 498.229 106.568 497.743 106.53L497.999 105.277ZM507.67 105.558C507.048 105.558 506.483 105.441 505.976 105.206C505.469 104.968 505.067 104.625 504.768 104.177C504.47 103.726 504.321 103.18 504.321 102.541C504.321 101.978 504.432 101.522 504.653 101.173C504.875 100.819 505.171 100.542 505.542 100.342C505.912 100.142 506.322 99.9927 506.769 99.8946C507.221 99.7924 507.675 99.7114 508.131 99.6517C508.727 99.575 509.211 99.5175 509.581 99.4792C509.956 99.4365 510.229 99.3662 510.4 99.2682C510.574 99.1702 510.662 98.9998 510.662 98.7569V98.7057C510.662 98.075 510.489 97.585 510.144 97.2356C509.803 96.8861 509.285 96.7114 508.591 96.7114C507.871 96.7114 507.306 96.8691 506.897 97.1844C506.488 97.4998 506.2 97.8364 506.034 98.1944L504.602 97.683C504.858 97.0864 505.199 96.6219 505.625 96.2895C506.055 95.9529 506.524 95.7185 507.031 95.5864C507.542 95.45 508.045 95.3819 508.54 95.3819C508.855 95.3819 509.217 95.4202 509.626 95.4969C510.04 95.5694 510.438 95.7206 510.822 95.9507C511.209 96.1809 511.531 96.5282 511.787 96.9927C512.042 97.4571 512.17 98.0793 512.17 98.8591V105.328H510.662V103.998H510.585C510.483 104.211 510.312 104.439 510.074 104.682C509.835 104.925 509.518 105.132 509.121 105.302C508.725 105.473 508.241 105.558 507.67 105.558ZM507.9 104.203C508.497 104.203 509 104.086 509.409 103.851C509.822 103.617 510.133 103.314 510.342 102.944C510.555 102.573 510.662 102.183 510.662 101.774V100.393C510.598 100.47 510.457 100.54 510.24 100.604C510.027 100.664 509.78 100.717 509.498 100.764C509.221 100.807 508.951 100.845 508.687 100.879C508.427 100.909 508.216 100.934 508.054 100.956C507.662 101.007 507.295 101.09 506.954 101.205C506.618 101.316 506.345 101.484 506.136 101.71C505.932 101.932 505.829 102.234 505.829 102.618C505.829 103.142 506.023 103.538 506.411 103.807C506.803 104.071 507.3 104.203 507.9 104.203ZM506.673 94.3336L505.497 94.2824C505.497 93.6304 505.682 93.0978 506.053 92.6844C506.428 92.2668 506.89 92.058 507.44 92.058C507.683 92.058 507.898 92.1006 508.086 92.1858C508.273 92.2668 508.452 92.3606 508.623 92.4671C508.793 92.5736 508.968 92.6695 509.147 92.7547C509.33 92.8357 509.537 92.8762 509.767 92.8762C510.01 92.8762 510.214 92.7824 510.381 92.5949C510.551 92.4032 510.636 92.1731 510.636 91.9046L511.787 92.0069C511.787 92.6716 511.599 93.2 511.224 93.5921C510.854 93.9841 510.393 94.1802 509.844 94.1802C509.55 94.1802 509.307 94.1397 509.115 94.0587C508.923 93.9735 508.753 93.8776 508.604 93.7711C508.454 93.6645 508.297 93.5708 508.131 93.4898C507.964 93.4046 507.76 93.362 507.517 93.362C507.274 93.362 507.072 93.4579 506.91 93.6496C506.752 93.8371 506.673 94.0651 506.673 94.3336ZM518.912 105.532C518.026 105.532 517.248 105.321 516.579 104.9C515.914 104.478 515.395 103.888 515.02 103.129C514.649 102.37 514.463 101.484 514.463 100.47C514.463 99.4472 514.649 98.5544 515.02 97.7917C515.395 97.0289 515.914 96.4365 516.579 96.0147C517.248 95.5928 518.026 95.3819 518.912 95.3819C519.799 95.3819 520.574 95.5928 521.239 96.0147C521.908 96.4365 522.428 97.0289 522.799 97.7917C523.174 98.5544 523.361 99.4472 523.361 100.47C523.361 101.484 523.174 102.37 522.799 103.129C522.428 103.888 521.908 104.478 521.239 104.9C520.574 105.321 519.799 105.532 518.912 105.532ZM518.912 104.177C519.586 104.177 520.14 104.005 520.574 103.66C521.009 103.314 521.331 102.861 521.539 102.298C521.748 101.736 521.853 101.126 521.853 100.47C521.853 99.8137 521.748 99.2022 521.539 98.6354C521.331 98.0686 521.009 97.6106 520.574 97.2611C520.14 96.9117 519.586 96.737 518.912 96.737C518.239 96.737 517.685 96.9117 517.25 97.2611C516.816 97.6106 516.494 98.0686 516.285 98.6354C516.076 99.2022 515.972 99.8137 515.972 100.47C515.972 101.126 516.076 101.736 516.285 102.298C516.494 102.861 516.816 103.314 517.25 103.66C517.685 104.005 518.239 104.177 518.912 104.177ZM527.914 103.538L527.812 104.228C527.739 104.714 527.628 105.234 527.479 105.788C527.334 106.342 527.183 106.864 527.025 107.354C526.868 107.844 526.738 108.234 526.635 108.524H525.485C525.54 108.251 525.613 107.891 525.702 107.444C525.792 106.996 525.881 106.495 525.971 105.942C526.064 105.392 526.141 104.829 526.201 104.254L526.278 103.538H527.914ZM539.888 105.532C538.942 105.532 538.126 105.324 537.44 104.906C536.758 104.484 536.232 103.896 535.861 103.142C535.494 102.383 535.311 101.501 535.311 100.495C535.311 99.4898 535.494 98.6034 535.861 97.8364C536.232 97.0651 536.747 96.4642 537.408 96.0338C538.072 95.5992 538.848 95.3819 539.734 95.3819C540.246 95.3819 540.751 95.4671 541.249 95.6375C541.748 95.808 542.202 96.085 542.611 96.4685C543.02 96.8478 543.346 97.3506 543.589 97.977C543.832 98.6034 543.953 99.3748 543.953 100.291V100.93H536.385V99.6262H542.419C542.419 99.0722 542.308 98.5779 542.087 98.1432C541.869 97.7086 541.558 97.3655 541.153 97.1141C540.753 96.8627 540.28 96.737 539.734 96.737C539.134 96.737 538.614 96.8861 538.175 97.1844C537.74 97.4784 537.406 97.862 537.171 98.335C536.937 98.808 536.82 99.3151 536.82 99.8563V100.726C536.82 101.467 536.947 102.096 537.203 102.611C537.463 103.123 537.823 103.513 538.283 103.781C538.744 104.045 539.278 104.177 539.888 104.177C540.284 104.177 540.642 104.122 540.962 104.011C541.286 103.896 541.565 103.726 541.799 103.5C542.033 103.27 542.214 102.984 542.342 102.643L543.8 103.052C543.646 103.547 543.388 103.981 543.026 104.356C542.664 104.727 542.217 105.017 541.684 105.226C541.151 105.43 540.553 105.532 539.888 105.532ZM546.248 105.328V95.5097H547.705V97.0438H547.833C548.038 96.5196 548.368 96.1127 548.824 95.8229C549.28 95.5289 549.827 95.3819 550.467 95.3819C551.114 95.3819 551.653 95.5289 552.084 95.8229C552.518 96.1127 552.857 96.5196 553.1 97.0438H553.202C553.454 96.5367 553.831 96.134 554.334 95.8357C554.837 95.5331 555.44 95.3819 556.143 95.3819C557.021 95.3819 557.739 95.6567 558.297 96.2064C558.855 96.7519 559.134 97.602 559.134 98.7569V105.328H557.626V98.7569C557.626 98.0324 557.428 97.5147 557.031 97.2036C556.635 96.8925 556.168 96.737 555.631 96.737C554.941 96.737 554.406 96.9458 554.027 97.3634C553.648 97.7767 553.458 98.3009 553.458 98.9358V105.328H551.924V98.6034C551.924 98.0452 551.743 97.5956 551.381 97.2547C551.018 96.9096 550.552 96.737 549.981 96.737C549.589 96.737 549.222 96.8414 548.881 97.0502C548.545 97.259 548.272 97.5488 548.063 97.9195C547.859 98.286 547.756 98.71 547.756 99.1915V105.328H546.248ZM568.463 99.4216V105.328H566.955V92.237H568.463V97.0438H568.591C568.821 96.5367 569.167 96.134 569.627 95.8357C570.091 95.5331 570.709 95.3819 571.48 95.3819C572.15 95.3819 572.735 95.5161 573.238 95.7846C573.741 96.0488 574.131 96.4557 574.408 97.0054C574.689 97.5509 574.83 98.2455 574.83 99.0892V105.328H573.321V99.1915C573.321 98.4117 573.119 97.8087 572.714 97.3826C572.314 96.9522 571.757 96.737 571.046 96.737C570.551 96.737 570.108 96.8414 569.716 97.0502C569.328 97.259 569.022 97.5637 568.796 97.9642C568.574 98.3648 568.463 98.8506 568.463 99.4216ZM577.59 105.328V95.5097H579.098V105.328H577.59ZM578.357 93.8733C578.063 93.8733 577.809 93.7732 577.596 93.5729C577.387 93.3726 577.283 93.1319 577.283 92.8506C577.283 92.5694 577.387 92.3286 577.596 92.1283C577.809 91.928 578.063 91.8279 578.357 91.8279C578.651 91.8279 578.902 91.928 579.111 92.1283C579.324 92.3286 579.431 92.5694 579.431 92.8506C579.431 93.1319 579.324 93.3726 579.111 93.5729C578.902 93.7732 578.651 93.8733 578.357 93.8733ZM581.861 109.01V95.5097H583.319V97.0694H583.498C583.608 96.8989 583.762 96.6816 583.958 96.4174C584.158 96.1489 584.444 95.9103 584.814 95.7015C585.189 95.4884 585.696 95.3819 586.336 95.3819C587.162 95.3819 587.891 95.5885 588.522 96.0019C589.152 96.4152 589.645 97.0012 589.998 97.7597C590.352 98.5182 590.529 99.4131 590.529 100.444C590.529 101.484 590.352 102.385 589.998 103.148C589.645 103.907 589.154 104.495 588.528 104.912C587.902 105.326 587.179 105.532 586.361 105.532C585.73 105.532 585.225 105.428 584.846 105.219C584.467 105.006 584.175 104.765 583.971 104.497C583.766 104.224 583.608 103.998 583.498 103.819H583.37V109.01H581.861ZM583.344 100.419C583.344 101.16 583.453 101.814 583.67 102.381C583.887 102.944 584.205 103.385 584.623 103.704C585.04 104.02 585.551 104.177 586.157 104.177C586.787 104.177 587.314 104.011 587.735 103.679C588.162 103.342 588.481 102.89 588.694 102.324C588.912 101.753 589.02 101.118 589.02 100.419C589.02 99.7284 588.914 99.1063 588.701 98.5523C588.492 97.9941 588.174 97.553 587.748 97.2292C587.326 96.901 586.796 96.737 586.157 96.737C585.543 96.737 585.027 96.8925 584.61 97.2036C584.192 97.5104 583.877 97.9408 583.664 98.4948C583.451 99.0445 583.344 99.6858 583.344 100.419ZM596.819 105.532C595.932 105.532 595.154 105.321 594.485 104.9C593.821 104.478 593.301 103.888 592.926 103.129C592.555 102.37 592.37 101.484 592.37 100.47C592.37 99.4472 592.555 98.5544 592.926 97.7917C593.301 97.0289 593.821 96.4365 594.485 96.0147C595.154 95.5928 595.932 95.3819 596.819 95.3819C597.705 95.3819 598.48 95.5928 599.145 96.0147C599.814 96.4365 600.334 97.0289 600.705 97.7917C601.08 98.5544 601.267 99.4472 601.267 100.47C601.267 101.484 601.08 102.37 600.705 103.129C600.334 103.888 599.814 104.478 599.145 104.9C598.48 105.321 597.705 105.532 596.819 105.532ZM596.819 104.177C597.492 104.177 598.046 104.005 598.48 103.66C598.915 103.314 599.237 102.861 599.446 102.298C599.654 101.736 599.759 101.126 599.759 100.47C599.759 99.8137 599.654 99.2022 599.446 98.6354C599.237 98.0686 598.915 97.6106 598.48 97.2611C598.046 96.9117 597.492 96.737 596.819 96.737C596.145 96.737 595.591 96.9117 595.157 97.2611C594.722 97.6106 594.4 98.0686 594.191 98.6354C593.983 99.2022 593.878 99.8137 593.878 100.47C593.878 101.126 593.983 101.736 594.191 102.298C594.4 102.861 594.722 103.314 595.157 103.66C595.591 104.005 596.145 104.177 596.819 104.177ZM596.128 94.1802L597.688 91.2142H599.452L597.458 94.1802H596.128ZM607.84 95.5097V96.7881H602.752V95.5097H607.84ZM604.235 93.1574H605.743V102.515C605.743 102.942 605.805 103.261 605.929 103.474C606.057 103.683 606.219 103.824 606.415 103.896C606.615 103.964 606.826 103.998 607.047 103.998C607.214 103.998 607.35 103.99 607.456 103.973C607.563 103.951 607.648 103.934 607.712 103.922L608.019 105.277C607.917 105.315 607.774 105.353 607.591 105.392C607.407 105.434 607.175 105.456 606.894 105.456C606.468 105.456 606.05 105.364 605.641 105.181C605.236 104.998 604.9 104.719 604.631 104.344C604.367 103.969 604.235 103.495 604.235 102.924V93.1574ZM614.12 105.532C613.174 105.532 612.358 105.324 611.672 104.906C610.99 104.484 610.464 103.896 610.093 103.142C609.727 102.383 609.544 101.501 609.544 100.495C609.544 99.4898 609.727 98.6034 610.093 97.8364C610.464 97.0651 610.98 96.4642 611.64 96.0338C612.305 95.5992 613.08 95.3819 613.967 95.3819C614.478 95.3819 614.983 95.4671 615.482 95.6375C615.98 95.808 616.434 96.085 616.843 96.4685C617.252 96.8478 617.578 97.3506 617.821 97.977C618.064 98.6034 618.186 99.3748 618.186 100.291V100.93H610.617V99.6262H616.651C616.651 99.0722 616.541 98.5779 616.319 98.1432C616.102 97.7086 615.791 97.3655 615.386 97.1141C614.985 96.8627 614.512 96.737 613.967 96.737C613.366 96.737 612.846 96.8861 612.407 97.1844C611.972 97.4784 611.638 97.862 611.404 98.335C611.169 98.808 611.052 99.3151 611.052 99.8563V100.726C611.052 101.467 611.18 102.096 611.436 102.611C611.695 103.123 612.056 103.513 612.516 103.781C612.976 104.045 613.511 104.177 614.12 104.177C614.517 104.177 614.874 104.122 615.194 104.011C615.518 103.896 615.797 103.726 616.031 103.5C616.266 103.27 616.447 102.984 616.575 102.643L618.032 103.052C617.879 103.547 617.621 103.981 617.259 104.356C616.896 104.727 616.449 105.017 615.916 105.226C615.384 105.43 614.785 105.532 614.12 105.532ZM627.435 97.7086L626.08 98.0921C625.994 97.8662 625.869 97.6468 625.703 97.4337C625.541 97.2164 625.319 97.0374 625.038 96.8968C624.757 96.7561 624.396 96.6858 623.958 96.6858C623.357 96.6858 622.856 96.8243 622.455 97.1013C622.059 97.374 621.861 97.7213 621.861 98.1432C621.861 98.5182 621.997 98.8144 622.27 99.0317C622.543 99.249 622.969 99.4302 623.548 99.575L625.006 99.933C625.884 100.146 626.538 100.472 626.968 100.911C627.399 101.346 627.614 101.906 627.614 102.592C627.614 103.155 627.452 103.657 627.128 104.101C626.808 104.544 626.361 104.893 625.786 105.149C625.21 105.405 624.541 105.532 623.779 105.532C622.777 105.532 621.948 105.315 621.292 104.88C620.636 104.446 620.22 103.811 620.046 102.976L621.477 102.618C621.614 103.146 621.872 103.542 622.251 103.807C622.634 104.071 623.135 104.203 623.753 104.203C624.456 104.203 625.014 104.054 625.428 103.755C625.845 103.453 626.054 103.091 626.054 102.669C626.054 102.328 625.935 102.042 625.696 101.812C625.458 101.578 625.091 101.403 624.597 101.288L622.96 100.905C622.061 100.692 621.401 100.361 620.979 99.9138C620.561 99.4621 620.352 98.8975 620.352 98.2199C620.352 97.6659 620.508 97.1759 620.819 96.7498C621.134 96.3236 621.563 95.9891 622.104 95.7462C622.649 95.5033 623.267 95.3819 623.958 95.3819C624.929 95.3819 625.692 95.5949 626.246 96.0211C626.804 96.4472 627.2 97.0097 627.435 97.7086ZM634.001 105.532C633.055 105.532 632.239 105.324 631.553 104.906C630.871 104.484 630.345 103.896 629.974 103.142C629.608 102.383 629.424 101.501 629.424 100.495C629.424 99.4898 629.608 98.6034 629.974 97.8364C630.345 97.0651 630.86 96.4642 631.521 96.0338C632.186 95.5992 632.961 95.3819 633.848 95.3819C634.359 95.3819 634.864 95.4671 635.363 95.6375C635.861 95.808 636.315 96.085 636.724 96.4685C637.133 96.8478 637.459 97.3506 637.702 97.977C637.945 98.6034 638.066 99.3748 638.066 100.291V100.93H630.498V99.6262H636.532C636.532 99.0722 636.422 98.5779 636.2 98.1432C635.983 97.7086 635.672 97.3655 635.267 97.1141C634.866 96.8627 634.393 96.737 633.848 96.737C633.247 96.737 632.727 96.8861 632.288 97.1844C631.853 97.4784 631.519 97.862 631.284 98.335C631.05 98.808 630.933 99.3151 630.933 99.8563V100.726C630.933 101.467 631.061 102.096 631.316 102.611C631.576 103.123 631.936 103.513 632.397 103.781C632.857 104.045 633.392 104.177 634.001 104.177C634.397 104.177 634.755 104.122 635.075 104.011C635.399 103.896 635.678 103.726 635.912 103.5C636.147 103.27 636.328 102.984 636.456 102.643L637.913 103.052C637.76 103.547 637.502 103.981 637.14 104.356C636.777 104.727 636.33 105.017 635.797 105.226C635.265 105.43 634.666 105.532 634.001 105.532ZM648.313 105.558C647.691 105.558 647.126 105.441 646.619 105.206C646.112 104.968 645.709 104.625 645.411 104.177C645.113 103.726 644.963 103.18 644.963 102.541C644.963 101.978 645.074 101.522 645.296 101.173C645.517 100.819 645.814 100.542 646.184 100.342C646.555 100.142 646.964 99.9927 647.412 99.8946C647.863 99.7924 648.317 99.7114 648.773 99.6517C649.37 99.575 649.853 99.5175 650.224 99.4792C650.599 99.4365 650.872 99.3662 651.042 99.2682C651.217 99.1702 651.304 98.9998 651.304 98.7569V98.7057C651.304 98.075 651.132 97.585 650.787 97.2356C650.446 96.8861 649.928 96.7114 649.233 96.7114C648.513 96.7114 647.949 96.8691 647.539 97.1844C647.13 97.4998 646.843 97.8364 646.676 98.1944L645.245 97.683C645.5 97.0864 645.841 96.6219 646.267 96.2895C646.698 95.9529 647.167 95.7185 647.674 95.5864C648.185 95.45 648.688 95.3819 649.182 95.3819C649.498 95.3819 649.86 95.4202 650.269 95.4969C650.682 95.5694 651.081 95.7206 651.464 95.9507C651.852 96.1809 652.174 96.5282 652.429 96.9927C652.685 97.4571 652.813 98.0793 652.813 98.8591V105.328H651.304V103.998H651.228C651.125 104.211 650.955 104.439 650.716 104.682C650.478 104.925 650.16 105.132 649.764 105.302C649.368 105.473 648.884 105.558 648.313 105.558ZM648.543 104.203C649.14 104.203 649.642 104.086 650.051 103.851C650.465 103.617 650.776 103.314 650.985 102.944C651.198 102.573 651.304 102.183 651.304 101.774V100.393C651.24 100.47 651.1 100.54 650.882 100.604C650.669 100.664 650.422 100.717 650.141 100.764C649.864 100.807 649.593 100.845 649.329 100.879C649.069 100.909 648.858 100.934 648.696 100.956C648.304 101.007 647.938 101.09 647.597 101.205C647.26 101.316 646.988 101.484 646.779 101.71C646.574 101.932 646.472 102.234 646.472 102.618C646.472 103.142 646.666 103.538 647.054 103.807C647.446 104.071 647.942 104.203 648.543 104.203ZM657.075 92.237V105.328H655.566V92.237H657.075ZM663.801 109.214C663.072 109.214 662.446 109.12 661.922 108.933C661.397 108.75 660.961 108.507 660.611 108.204C660.266 107.906 659.991 107.586 659.787 107.245L660.988 106.402C661.125 106.581 661.297 106.785 661.506 107.015C661.715 107.25 662 107.452 662.363 107.623C662.729 107.797 663.208 107.885 663.801 107.885C664.593 107.885 665.248 107.693 665.763 107.309C666.279 106.926 666.537 106.325 666.537 105.507V103.513H666.409C666.298 103.692 666.14 103.913 665.936 104.177C665.735 104.437 665.446 104.67 665.066 104.874C664.691 105.074 664.184 105.174 663.545 105.174C662.752 105.174 662.041 104.987 661.41 104.612C660.784 104.237 660.287 103.692 659.921 102.976C659.559 102.26 659.377 101.39 659.377 100.368C659.377 99.362 659.554 98.4863 659.908 97.7405C660.262 96.9905 660.754 96.411 661.385 96.0019C662.015 95.5885 662.744 95.3819 663.571 95.3819C664.21 95.3819 664.717 95.4884 665.092 95.7015C665.471 95.9103 665.761 96.1489 665.961 96.4174C666.166 96.6816 666.324 96.8989 666.434 97.0694H666.588V95.5097H668.045V105.609C668.045 106.453 667.853 107.139 667.47 107.667C667.091 108.2 666.579 108.59 665.936 108.837C665.297 109.089 664.585 109.214 663.801 109.214ZM663.75 103.819C664.355 103.819 664.866 103.681 665.284 103.404C665.701 103.127 666.019 102.728 666.236 102.209C666.453 101.689 666.562 101.067 666.562 100.342C666.562 99.6347 666.456 99.0104 666.243 98.4692C666.029 97.928 665.714 97.504 665.297 97.1972C664.879 96.8904 664.363 96.737 663.75 96.737C663.11 96.737 662.578 96.8989 662.152 97.2228C661.73 97.5466 661.412 97.9813 661.199 98.5267C660.99 99.0722 660.886 99.6773 660.886 100.342C660.886 101.024 660.993 101.627 661.206 102.151C661.423 102.671 661.743 103.08 662.164 103.378C662.591 103.672 663.119 103.819 663.75 103.819ZM676.994 101.314V95.5097H678.502V105.328H676.994V103.666H676.892C676.662 104.165 676.304 104.589 675.818 104.938C675.332 105.283 674.718 105.456 673.977 105.456C673.363 105.456 672.818 105.321 672.341 105.053C671.863 104.78 671.488 104.371 671.216 103.826C670.943 103.276 670.806 102.584 670.806 101.748V95.5097H672.315V101.646C672.315 102.362 672.515 102.933 672.916 103.359C673.321 103.785 673.836 103.998 674.463 103.998C674.838 103.998 675.219 103.902 675.607 103.711C675.999 103.519 676.327 103.225 676.591 102.829C676.86 102.432 676.994 101.927 676.994 101.314ZM681.265 105.328V95.5097H682.723V97.0438H682.851C683.055 96.5196 683.385 96.1127 683.841 95.8229C684.297 95.5289 684.845 95.3819 685.484 95.3819C686.132 95.3819 686.671 95.5289 687.101 95.8229C687.536 96.1127 687.875 96.5196 688.118 97.0438H688.22C688.471 96.5367 688.849 96.134 689.351 95.8357C689.854 95.5331 690.457 95.3819 691.16 95.3819C692.038 95.3819 692.756 95.6567 693.314 96.2064C693.873 96.7519 694.152 97.602 694.152 98.7569V105.328H692.643V98.7569C692.643 98.0324 692.445 97.5147 692.049 97.2036C691.653 96.8925 691.186 96.737 690.649 96.737C689.959 96.737 689.424 96.9458 689.045 97.3634C688.665 97.7767 688.476 98.3009 688.476 98.9358V105.328H686.942V98.6034C686.942 98.0452 686.76 97.5956 686.398 97.2547C686.036 96.9096 685.569 96.737 684.998 96.737C684.606 96.737 684.24 96.8414 683.899 97.0502C683.562 97.259 683.29 97.5488 683.081 97.9195C682.876 98.286 682.774 98.71 682.774 99.1915V105.328H681.265ZM699.799 105.558C699.177 105.558 698.612 105.441 698.105 105.206C697.598 104.968 697.195 104.625 696.897 104.177C696.599 103.726 696.45 103.18 696.45 102.541C696.45 101.978 696.561 101.522 696.782 101.173C697.004 100.819 697.3 100.542 697.671 100.342C698.041 100.142 698.45 99.9927 698.898 99.8946C699.35 99.7924 699.803 99.7114 700.259 99.6517C700.856 99.575 701.34 99.5175 701.71 99.4792C702.085 99.4365 702.358 99.3662 702.529 99.2682C702.703 99.1702 702.791 98.9998 702.791 98.7569V98.7057C702.791 98.075 702.618 97.585 702.273 97.2356C701.932 96.8861 701.414 96.7114 700.72 96.7114C699.999 96.7114 699.435 96.8691 699.026 97.1844C698.617 97.4998 698.329 97.8364 698.163 98.1944L696.731 97.683C696.987 97.0864 697.328 96.6219 697.754 96.2895C698.184 95.9529 698.653 95.7185 699.16 95.5864C699.671 95.45 700.174 95.3819 700.669 95.3819C700.984 95.3819 701.346 95.4202 701.755 95.4969C702.169 95.5694 702.567 95.7206 702.95 95.9507C703.338 96.1809 703.66 96.5282 703.916 96.9927C704.171 97.4571 704.299 98.0793 704.299 98.8591V105.328H702.791V103.998H702.714C702.612 104.211 702.441 104.439 702.203 104.682C701.964 104.925 701.646 105.132 701.25 105.302C700.854 105.473 700.37 105.558 699.799 105.558ZM700.029 104.203C700.626 104.203 701.129 104.086 701.538 103.851C701.951 103.617 702.262 103.314 702.471 102.944C702.684 102.573 702.791 102.183 702.791 101.774V100.393C702.727 100.47 702.586 100.54 702.369 100.604C702.156 100.664 701.909 100.717 701.627 100.764C701.35 100.807 701.08 100.845 700.816 100.879C700.556 100.909 700.345 100.934 700.183 100.956C699.791 101.007 699.424 101.09 699.083 101.205C698.747 101.316 698.474 101.484 698.265 101.71C698.061 101.932 697.958 102.234 697.958 102.618C697.958 103.142 698.152 103.538 698.54 103.807C698.932 104.071 699.428 104.203 700.029 104.203ZM716.104 105.532C715.217 105.532 714.44 105.321 713.771 104.9C713.106 104.478 712.586 103.888 712.211 103.129C711.84 102.37 711.655 101.484 711.655 100.47C711.655 99.4472 711.84 98.5544 712.211 97.7917C712.586 97.0289 713.106 96.4365 713.771 96.0147C714.44 95.5928 715.217 95.3819 716.104 95.3819C716.99 95.3819 717.766 95.5928 718.43 96.0147C719.099 96.4365 719.619 97.0289 719.99 97.7917C720.365 98.5544 720.553 99.4472 720.553 100.47C720.553 101.484 720.365 102.37 719.99 103.129C719.619 103.888 719.099 104.478 718.43 104.9C717.766 105.321 716.99 105.532 716.104 105.532ZM716.104 104.177C716.777 104.177 717.331 104.005 717.766 103.66C718.2 103.314 718.522 102.861 718.731 102.298C718.94 101.736 719.044 101.126 719.044 100.47C719.044 99.8137 718.94 99.2022 718.731 98.6354C718.522 98.0686 718.2 97.6106 717.766 97.2611C717.331 96.9117 716.777 96.737 716.104 96.737C715.43 96.737 714.876 96.9117 714.442 97.2611C714.007 97.6106 713.685 98.0686 713.477 98.6354C713.268 99.2022 713.163 99.8137 713.163 100.47C713.163 101.126 713.268 101.736 713.477 102.298C713.685 102.861 714.007 103.314 714.442 103.66C714.876 104.005 715.43 104.177 716.104 104.177ZM734.105 101.314V95.5097H735.614V105.328H734.105V103.666H734.003C733.773 104.165 733.415 104.589 732.929 104.938C732.443 105.283 731.83 105.456 731.088 105.456C730.475 105.456 729.929 105.321 729.452 105.053C728.975 104.78 728.6 104.371 728.327 103.826C728.054 103.276 727.918 102.584 727.918 101.748V95.5097H729.426V101.646C729.426 102.362 729.627 102.933 730.027 103.359C730.432 103.785 730.948 103.998 731.574 103.998C731.949 103.998 732.33 103.902 732.718 103.711C733.11 103.519 733.438 103.225 733.703 102.829C733.971 102.432 734.105 101.927 734.105 101.314ZM745.331 97.7086L743.976 98.0921C743.891 97.8662 743.765 97.6468 743.599 97.4337C743.437 97.2164 743.216 97.0374 742.934 96.8968C742.653 96.7561 742.293 96.6858 741.854 96.6858C741.253 96.6858 740.752 96.8243 740.352 97.1013C739.956 97.374 739.757 97.7213 739.757 98.1432C739.757 98.5182 739.894 98.8144 740.167 99.0317C740.439 99.249 740.865 99.4302 741.445 99.575L742.902 99.933C743.78 100.146 744.434 100.472 744.865 100.911C745.295 101.346 745.51 101.906 745.51 102.592C745.51 103.155 745.348 103.657 745.025 104.101C744.705 104.544 744.257 104.893 743.682 105.149C743.107 105.405 742.438 105.532 741.675 105.532C740.674 105.532 739.845 105.315 739.189 104.88C738.532 104.446 738.117 103.811 737.942 102.976L739.374 102.618C739.51 103.146 739.768 103.542 740.147 103.807C740.531 104.071 741.032 104.203 741.65 104.203C742.353 104.203 742.911 104.054 743.324 103.755C743.742 103.453 743.951 103.091 743.951 102.669C743.951 102.328 743.831 102.042 743.593 101.812C743.354 101.578 742.988 101.403 742.493 101.288L740.857 100.905C739.958 100.692 739.297 100.361 738.875 99.9138C738.458 99.4621 738.249 98.8975 738.249 98.2199C738.249 97.6659 738.404 97.1759 738.716 96.7498C739.031 96.3236 739.459 95.9891 740 95.7462C740.546 95.5033 741.164 95.3819 741.854 95.3819C742.826 95.3819 743.588 95.5949 744.142 96.0211C744.701 96.4472 745.097 97.0097 745.331 97.7086ZM750.67 105.558C750.048 105.558 749.483 105.441 748.976 105.206C748.469 104.968 748.067 104.625 747.768 104.177C747.47 103.726 747.321 103.18 747.321 102.541C747.321 101.978 747.432 101.522 747.653 101.173C747.875 100.819 748.171 100.542 748.542 100.342C748.912 100.142 749.322 99.9927 749.769 99.8946C750.221 99.7924 750.675 99.7114 751.131 99.6517C751.727 99.575 752.211 99.5175 752.581 99.4792C752.956 99.4365 753.229 99.3662 753.4 99.2682C753.574 99.1702 753.662 98.9998 753.662 98.7569V98.7057C753.662 98.075 753.489 97.585 753.144 97.2356C752.803 96.8861 752.285 96.7114 751.591 96.7114C750.871 96.7114 750.306 96.8691 749.897 97.1844C749.488 97.4998 749.2 97.8364 749.034 98.1944L747.602 97.683C747.858 97.0864 748.199 96.6219 748.625 96.2895C749.055 95.9529 749.524 95.7185 750.031 95.5864C750.542 95.45 751.045 95.3819 751.54 95.3819C751.855 95.3819 752.217 95.4202 752.626 95.4969C753.04 95.5694 753.438 95.7206 753.822 95.9507C754.209 96.1809 754.531 96.5282 754.787 96.9927C755.042 97.4571 755.17 98.0793 755.17 98.8591V105.328H753.662V103.998H753.585C753.483 104.211 753.312 104.439 753.074 104.682C752.835 104.925 752.518 105.132 752.121 105.302C751.725 105.473 751.241 105.558 750.67 105.558ZM750.9 104.203C751.497 104.203 752 104.086 752.409 103.851C752.822 103.617 753.133 103.314 753.342 102.944C753.555 102.573 753.662 102.183 753.662 101.774V100.393C753.598 100.47 753.457 100.54 753.24 100.604C753.027 100.664 752.78 100.717 752.498 100.764C752.221 100.807 751.951 100.845 751.687 100.879C751.427 100.909 751.216 100.934 751.054 100.956C750.662 101.007 750.295 101.09 749.954 101.205C749.618 101.316 749.345 101.484 749.136 101.71C748.932 101.932 748.829 102.234 748.829 102.618C748.829 103.142 749.023 103.538 749.411 103.807C749.803 104.071 750.3 104.203 750.9 104.203ZM757.924 105.328V95.5097H759.381V96.9927H759.483C759.662 96.5069 759.986 96.1127 760.455 95.8101C760.924 95.5076 761.452 95.3563 762.04 95.3563C762.151 95.3563 762.289 95.3584 762.456 95.3627C762.622 95.3669 762.748 95.3733 762.833 95.3819V96.9159C762.782 96.9032 762.664 96.884 762.481 96.8584C762.302 96.8286 762.113 96.8137 761.912 96.8137C761.435 96.8137 761.009 96.9138 760.634 97.1141C760.263 97.3101 759.969 97.5829 759.752 97.9323C759.539 98.2775 759.432 98.6716 759.432 99.1148V105.328H757.924ZM768.439 105.532C767.493 105.532 766.676 105.324 765.99 104.906C765.309 104.484 764.782 103.896 764.412 103.142C764.045 102.383 763.862 101.501 763.862 100.495C763.862 99.4898 764.045 98.6034 764.412 97.8364C764.782 97.0651 765.298 96.4642 765.958 96.0338C766.623 95.5992 767.399 95.3819 768.285 95.3819C768.797 95.3819 769.301 95.4671 769.8 95.6375C770.299 95.808 770.752 96.085 771.162 96.4685C771.571 96.8478 771.897 97.3506 772.14 97.977C772.382 98.6034 772.504 99.3748 772.504 100.291V100.93H764.936V99.6262H770.97C770.97 99.0722 770.859 98.5779 770.637 98.1432C770.42 97.7086 770.109 97.3655 769.704 97.1141C769.304 96.8627 768.831 96.737 768.285 96.737C767.684 96.737 767.164 96.8861 766.725 97.1844C766.291 97.4784 765.956 97.862 765.722 98.335C765.488 98.808 765.37 99.3151 765.37 99.8563V100.726C765.37 101.467 765.498 102.096 765.754 102.611C766.014 103.123 766.374 103.513 766.834 103.781C767.294 104.045 767.829 104.177 768.439 104.177C768.835 104.177 769.193 104.122 769.512 104.011C769.836 103.896 770.115 103.726 770.35 103.5C770.584 103.27 770.765 102.984 770.893 102.643L772.35 103.052C772.197 103.547 771.939 103.981 771.577 104.356C771.215 104.727 770.767 105.017 770.235 105.226C769.702 105.43 769.103 105.532 768.439 105.532ZM774.799 105.328V95.5097H776.256V97.0438H776.384C776.588 96.5196 776.919 96.1127 777.375 95.8229C777.831 95.5289 778.378 95.3819 779.017 95.3819C779.665 95.3819 780.204 95.5289 780.635 95.8229C781.069 96.1127 781.408 96.5196 781.651 97.0438H781.753C782.005 96.5367 782.382 96.134 782.885 95.8357C783.387 95.5331 783.99 95.3819 784.694 95.3819C785.571 95.3819 786.289 95.6567 786.848 96.2064C787.406 96.7519 787.685 97.602 787.685 98.7569V105.328H786.176V98.7569C786.176 98.0324 785.978 97.5147 785.582 97.2036C785.186 96.8925 784.719 96.737 784.182 96.737C783.492 96.737 782.957 96.9458 782.578 97.3634C782.199 97.7767 782.009 98.3009 782.009 98.9358V105.328H780.475V98.6034C780.475 98.0452 780.294 97.5956 779.931 97.2547C779.569 96.9096 779.103 96.737 778.532 96.737C778.14 96.737 777.773 96.8414 777.432 97.0502C777.096 97.259 776.823 97.5488 776.614 97.9195C776.409 98.286 776.307 98.71 776.307 99.1915V105.328H774.799ZM794.432 105.532C793.545 105.532 792.768 105.321 792.099 104.9C791.434 104.478 790.914 103.888 790.539 103.129C790.168 102.37 789.983 101.484 789.983 100.47C789.983 99.4472 790.168 98.5544 790.539 97.7917C790.914 97.0289 791.434 96.4365 792.099 96.0147C792.768 95.5928 793.545 95.3819 794.432 95.3819C795.318 95.3819 796.094 95.5928 796.759 96.0147C797.428 96.4365 797.947 97.0289 798.318 97.7917C798.693 98.5544 798.881 99.4472 798.881 100.47C798.881 101.484 798.693 102.37 798.318 103.129C797.947 103.888 797.428 104.478 796.759 104.9C796.094 105.321 795.318 105.532 794.432 105.532ZM794.432 104.177C795.105 104.177 795.659 104.005 796.094 103.66C796.528 103.314 796.85 102.861 797.059 102.298C797.268 101.736 797.372 101.126 797.372 100.47C797.372 99.8137 797.268 99.2022 797.059 98.6354C796.85 98.0686 796.528 97.6106 796.094 97.2611C795.659 96.9117 795.105 96.737 794.432 96.737C793.759 96.737 793.205 96.9117 792.77 97.2611C792.335 97.6106 792.013 98.0686 791.805 98.6354C791.596 99.2022 791.491 99.8137 791.491 100.47C791.491 101.126 791.596 101.736 791.805 102.298C792.013 102.861 792.335 103.314 792.77 103.66C793.205 104.005 793.759 104.177 794.432 104.177ZM808.138 97.7086L806.783 98.0921C806.698 97.8662 806.572 97.6468 806.406 97.4337C806.244 97.2164 806.022 97.0374 805.741 96.8968C805.46 96.7561 805.1 96.6858 804.661 96.6858C804.06 96.6858 803.559 96.8243 803.159 97.1013C802.762 97.374 802.564 97.7213 802.564 98.1432C802.564 98.5182 802.7 98.8144 802.973 99.0317C803.246 99.249 803.672 99.4302 804.252 99.575L805.709 99.933C806.587 100.146 807.241 100.472 807.671 100.911C808.102 101.346 808.317 101.906 808.317 102.592C808.317 103.155 808.155 103.657 807.831 104.101C807.512 104.544 807.064 104.893 806.489 105.149C805.914 105.405 805.244 105.532 804.482 105.532C803.48 105.532 802.651 105.315 801.995 104.88C801.339 104.446 800.923 103.811 800.749 102.976L802.181 102.618C802.317 103.146 802.575 103.542 802.954 103.807C803.338 104.071 803.838 104.203 804.456 104.203C805.159 104.203 805.718 104.054 806.131 103.755C806.548 103.453 806.757 103.091 806.757 102.669C806.757 102.328 806.638 102.042 806.399 101.812C806.161 101.578 805.794 101.403 805.3 101.288L803.664 100.905C802.764 100.692 802.104 100.361 801.682 99.9138C801.264 99.4621 801.056 98.8975 801.056 98.2199C801.056 97.6659 801.211 97.1759 801.522 96.7498C801.838 96.3236 802.266 95.9891 802.807 95.7462C803.352 95.5033 803.97 95.3819 804.661 95.3819C805.632 95.3819 806.395 95.5949 806.949 96.0211C807.507 96.4472 807.904 97.0097 808.138 97.7086ZM815.65 105.328V95.5097H817.159V105.328H815.65ZM816.417 93.8733C816.123 93.8733 815.87 93.7732 815.657 93.5729C815.448 93.3726 815.343 93.1319 815.343 92.8506C815.343 92.5694 815.448 92.3286 815.657 92.1283C815.87 91.928 816.123 91.8279 816.417 91.8279C816.711 91.8279 816.963 91.928 817.172 92.1283C817.385 92.3286 817.491 92.5694 817.491 92.8506C817.491 93.1319 817.385 93.3726 817.172 93.5729C816.963 93.7732 816.711 93.8733 816.417 93.8733ZM821.43 99.4216V105.328H819.922V95.5097H821.379V97.0438H821.507C821.737 96.5452 822.086 96.1446 822.555 95.8421C823.024 95.5353 823.629 95.3819 824.371 95.3819C825.035 95.3819 825.617 95.5182 826.116 95.7909C826.614 96.0594 827.002 96.4685 827.279 97.0182C827.556 97.5637 827.694 98.254 827.694 99.0892V105.328H826.186V99.1915C826.186 98.4202 825.986 97.8194 825.585 97.389C825.184 96.9543 824.635 96.737 823.936 96.737C823.454 96.737 823.024 96.8414 822.645 97.0502C822.27 97.259 821.974 97.5637 821.756 97.9642C821.539 98.3648 821.43 98.8506 821.43 99.4216ZM834.721 95.5097V96.7881H829.633V95.5097H834.721ZM831.116 93.1574H832.624V102.515C832.624 102.942 832.686 103.261 832.81 103.474C832.938 103.683 833.099 103.824 833.295 103.896C833.496 103.964 833.707 103.998 833.928 103.998C834.094 103.998 834.231 103.99 834.337 103.973C834.444 103.951 834.529 103.934 834.593 103.922L834.9 105.277C834.798 105.315 834.655 105.353 834.472 105.392C834.288 105.434 834.056 105.456 833.775 105.456C833.349 105.456 832.931 105.364 832.522 105.181C832.117 104.998 831.781 104.719 831.512 104.344C831.248 103.969 831.116 103.495 831.116 102.924V93.1574ZM841.001 105.532C840.055 105.532 839.239 105.324 838.553 104.906C837.871 104.484 837.345 103.896 836.974 103.142C836.608 102.383 836.424 101.501 836.424 100.495C836.424 99.4898 836.608 98.6034 836.974 97.8364C837.345 97.0651 837.86 96.4642 838.521 96.0338C839.186 95.5992 839.961 95.3819 840.848 95.3819C841.359 95.3819 841.864 95.4671 842.363 95.6375C842.861 95.808 843.315 96.085 843.724 96.4685C844.133 96.8478 844.459 97.3506 844.702 97.977C844.945 98.6034 845.066 99.3748 845.066 100.291V100.93H837.498V99.6262H843.532C843.532 99.0722 843.422 98.5779 843.2 98.1432C842.983 97.7086 842.672 97.3655 842.267 97.1141C841.866 96.8627 841.393 96.737 840.848 96.737C840.247 96.737 839.727 96.8861 839.288 97.1844C838.853 97.4784 838.519 97.862 838.284 98.335C838.05 98.808 837.933 99.3151 837.933 99.8563V100.726C837.933 101.467 838.061 102.096 838.316 102.611C838.576 103.123 838.936 103.513 839.397 103.781C839.857 104.045 840.392 104.177 841.001 104.177C841.397 104.177 841.755 104.122 842.075 104.011C842.399 103.896 842.678 103.726 842.912 103.5C843.147 103.27 843.328 102.984 843.456 102.643L844.913 103.052C844.76 103.547 844.502 103.981 844.14 104.356C843.777 104.727 843.33 105.017 842.797 105.226C842.265 105.43 841.666 105.532 841.001 105.532ZM847.361 105.328V95.5097H848.819V96.9927H848.921C849.1 96.5069 849.424 96.1127 849.892 95.8101C850.361 95.5076 850.89 95.3563 851.478 95.3563C851.588 95.3563 851.727 95.3584 851.893 95.3627C852.059 95.3669 852.185 95.3733 852.27 95.3819V96.9159C852.219 96.9032 852.102 96.884 851.919 96.8584C851.74 96.8286 851.55 96.8137 851.35 96.8137C850.873 96.8137 850.446 96.9138 850.071 97.1141C849.701 97.3101 849.407 97.5829 849.189 97.9323C848.976 98.2775 848.87 98.6716 848.87 99.1148V105.328H847.361ZM855.567 99.4216V105.328H854.058V95.5097H855.516V97.0438H855.644C855.874 96.5452 856.223 96.1446 856.692 95.8421C857.161 95.5353 857.766 95.3819 858.507 95.3819C859.172 95.3819 859.754 95.5182 860.252 95.7909C860.751 96.0594 861.139 96.4685 861.416 97.0182C861.693 97.5637 861.831 98.254 861.831 99.0892V105.328H860.323V99.1915C860.323 98.4202 860.122 97.8194 859.722 97.389C859.321 96.9543 858.771 96.737 858.073 96.737C857.591 96.737 857.161 96.8414 856.781 97.0502C856.406 97.259 856.11 97.5637 855.893 97.9642C855.676 98.3648 855.567 98.8506 855.567 99.4216ZM867.477 105.558C866.855 105.558 866.29 105.441 865.783 105.206C865.276 104.968 864.873 104.625 864.575 104.177C864.277 103.726 864.127 103.18 864.127 102.541C864.127 101.978 864.238 101.522 864.46 101.173C864.681 100.819 864.978 100.542 865.348 100.342C865.719 100.142 866.128 99.9927 866.576 99.8946C867.027 99.7924 867.481 99.7114 867.937 99.6517C868.534 99.575 869.017 99.5175 869.388 99.4792C869.763 99.4365 870.036 99.3662 870.206 99.2682C870.381 99.1702 870.468 98.9998 870.468 98.7569V98.7057C870.468 98.075 870.296 97.585 869.951 97.2356C869.61 96.8861 869.092 96.7114 868.397 96.7114C867.677 96.7114 867.113 96.8691 866.703 97.1844C866.294 97.4998 866.007 97.8364 865.841 98.1944L864.409 97.683C864.664 97.0864 865.005 96.6219 865.431 96.2895C865.862 95.9529 866.331 95.7185 866.838 95.5864C867.349 95.45 867.852 95.3819 868.346 95.3819C868.662 95.3819 869.024 95.4202 869.433 95.4969C869.846 95.5694 870.245 95.7206 870.628 95.9507C871.016 96.1809 871.338 96.5282 871.593 96.9927C871.849 97.4571 871.977 98.0793 871.977 98.8591V105.328H870.468V103.998H870.392C870.289 104.211 870.119 104.439 869.88 104.682C869.642 104.925 869.324 105.132 868.928 105.302C868.532 105.473 868.048 105.558 867.477 105.558ZM867.707 104.203C868.304 104.203 868.806 104.086 869.216 103.851C869.629 103.617 869.94 103.314 870.149 102.944C870.362 102.573 870.468 102.183 870.468 101.774V100.393C870.404 100.47 870.264 100.54 870.047 100.604C869.833 100.664 869.586 100.717 869.305 100.764C869.028 100.807 868.757 100.845 868.493 100.879C868.233 100.909 868.022 100.934 867.86 100.956C867.468 101.007 867.102 101.09 866.761 101.205C866.424 101.316 866.152 101.484 865.943 101.71C865.738 101.932 865.636 102.234 865.636 102.618C865.636 103.142 865.83 103.538 866.218 103.807C866.61 104.071 867.106 104.203 867.707 104.203ZM874.73 105.328V95.5097H876.188V97.0438H876.316C876.52 96.5196 876.85 96.1127 877.306 95.8229C877.762 95.5289 878.31 95.3819 878.949 95.3819C879.597 95.3819 880.136 95.5289 880.566 95.8229C881.001 96.1127 881.34 96.5196 881.583 97.0438H881.685C881.936 96.5367 882.313 96.134 882.816 95.8357C883.319 95.5331 883.922 95.3819 884.625 95.3819C885.503 95.3819 886.221 95.6567 886.779 96.2064C887.338 96.7519 887.617 97.602 887.617 98.7569V105.328H886.108V98.7569C886.108 98.0324 885.91 97.5147 885.514 97.2036C885.117 96.8925 884.651 96.737 884.114 96.737C883.423 96.737 882.889 96.9458 882.509 97.3634C882.13 97.7767 881.941 98.3009 881.941 98.9358V105.328H880.406V98.6034C880.406 98.0452 880.225 97.5956 879.863 97.2547C879.501 96.9096 879.034 96.737 878.463 96.737C878.071 96.737 877.705 96.8414 877.364 97.0502C877.027 97.259 876.754 97.5488 876.546 97.9195C876.341 98.286 876.239 98.71 876.239 99.1915V105.328H874.73ZM894.491 105.532C893.545 105.532 892.729 105.324 892.043 104.906C891.361 104.484 890.835 103.896 890.464 103.142C890.098 102.383 889.915 101.501 889.915 100.495C889.915 99.4898 890.098 98.6034 890.464 97.8364C890.835 97.0651 891.351 96.4642 892.011 96.0338C892.676 95.5992 893.452 95.3819 894.338 95.3819C894.849 95.3819 895.354 95.4671 895.853 95.6375C896.351 95.808 896.805 96.085 897.214 96.4685C897.623 96.8478 897.949 97.3506 898.192 97.977C898.435 98.6034 898.557 99.3748 898.557 100.291V100.93H890.988V99.6262H897.023C897.023 99.0722 896.912 98.5779 896.69 98.1432C896.473 97.7086 896.162 97.3655 895.757 97.1141C895.356 96.8627 894.883 96.737 894.338 96.737C893.737 96.737 893.217 96.8861 892.778 97.1844C892.344 97.4784 892.009 97.862 891.775 98.335C891.54 98.808 891.423 99.3151 891.423 99.8563V100.726C891.423 101.467 891.551 102.096 891.807 102.611C892.067 103.123 892.427 103.513 892.887 103.781C893.347 104.045 893.882 104.177 894.491 104.177C894.888 104.177 895.246 104.122 895.565 104.011C895.889 103.896 896.168 103.726 896.403 103.5C896.637 103.27 896.818 102.984 896.946 102.643L898.403 103.052C898.25 103.547 897.992 103.981 897.63 104.356C897.268 104.727 896.82 105.017 896.287 105.226C895.755 105.43 895.156 105.532 894.491 105.532ZM902.36 99.4216V105.328H900.851V95.5097H902.309V97.0438H902.437C902.667 96.5452 903.016 96.1446 903.485 95.8421C903.954 95.5353 904.559 95.3819 905.3 95.3819C905.965 95.3819 906.547 95.5182 907.045 95.7909C907.544 96.0594 907.932 96.4685 908.209 97.0182C908.486 97.5637 908.624 98.254 908.624 99.0892V105.328H907.116V99.1915C907.116 98.4202 906.915 97.8194 906.515 97.389C906.114 96.9543 905.564 96.737 904.866 96.737C904.384 96.737 903.954 96.8414 903.574 97.0502C903.199 97.259 902.903 97.5637 902.686 97.9642C902.469 98.3648 902.36 98.8506 902.36 99.4216ZM915.651 95.5097V96.7881H910.562V95.5097H915.651ZM912.045 93.1574H913.554V102.515C913.554 102.942 913.616 103.261 913.739 103.474C913.867 103.683 914.029 103.824 914.225 103.896C914.425 103.964 914.636 103.998 914.858 103.998C915.024 103.998 915.161 103.99 915.267 103.973C915.374 103.951 915.459 103.934 915.523 103.922L915.83 105.277C915.727 105.315 915.585 105.353 915.401 105.392C915.218 105.434 914.986 105.456 914.705 105.456C914.278 105.456 913.861 105.364 913.452 105.181C913.047 104.998 912.71 104.719 912.442 104.344C912.178 103.969 912.045 103.495 912.045 102.924V93.1574ZM921.931 105.532C920.985 105.532 920.169 105.324 919.483 104.906C918.801 104.484 918.275 103.896 917.904 103.142C917.537 102.383 917.354 101.501 917.354 100.495C917.354 99.4898 917.537 98.6034 917.904 97.8364C918.275 97.0651 918.79 96.4642 919.451 96.0338C920.115 95.5992 920.891 95.3819 921.777 95.3819C922.289 95.3819 922.794 95.4671 923.292 95.6375C923.791 95.808 924.245 96.085 924.654 96.4685C925.063 96.8478 925.389 97.3506 925.632 97.977C925.875 98.6034 925.996 99.3748 925.996 100.291V100.93H918.428V99.6262H924.462C924.462 99.0722 924.351 98.5779 924.13 98.1432C923.912 97.7086 923.601 97.3655 923.196 97.1141C922.796 96.8627 922.323 96.737 921.777 96.737C921.176 96.737 920.657 96.8861 920.218 97.1844C919.783 97.4784 919.449 97.862 919.214 98.335C918.98 98.808 918.863 99.3151 918.863 99.8563V100.726C918.863 101.467 918.99 102.096 919.246 102.611C919.506 103.123 919.866 103.513 920.326 103.781C920.787 104.045 921.321 104.177 921.931 104.177C922.327 104.177 922.685 104.122 923.005 104.011C923.328 103.896 923.608 103.726 923.842 103.5C924.076 103.27 924.257 102.984 924.385 102.643L925.843 103.052C925.689 103.547 925.431 103.981 925.069 104.356C924.707 104.727 924.26 105.017 923.727 105.226C923.194 105.43 922.596 105.532 921.931 105.532ZM929.39 105.43C929.075 105.43 928.804 105.317 928.578 105.091C928.353 104.866 928.24 104.595 928.24 104.28C928.24 103.964 928.353 103.694 928.578 103.468C928.804 103.242 929.075 103.129 929.39 103.129C929.706 103.129 929.976 103.242 930.202 103.468C930.428 103.694 930.541 103.964 930.541 104.28C930.541 104.488 930.488 104.68 930.381 104.855C930.279 105.03 930.14 105.17 929.966 105.277C929.795 105.379 929.603 105.43 929.39 105.43Z" fill="#6D6D6D"/>
</svg>
