<svg width="991" height="173" viewBox="0 0 991 173" fill="none" xmlns="http://www.w3.org/2000/svg">
<g clip-path="url(#clip0_40_52402)">
<path d="M0 20C0 8.95428 8.95431 0 20 0H971C982.046 0 991 8.9543 991 20V172.328H0V20Z" fill="white"/>
<rect width="991" height="12" fill="url(#paint0_linear_40_52402)"/>
<path d="M580.469 87.7304C589.171 82.6202 586.559 74.6832 584.256 71.1754C580.368 80.4655 569.108 77.8957 564.958 79.3313C562.011 80.109 557.853 82.4217 555.356 84.4904C554.816 84.9385 553.427 85.9234 553.495 86.5373C553.699 87.6501 554.901 87.5343 555.872 86.9307C558.771 85.1286 566.144 81.7308 572.179 83.0158C578.553 85.2223 571.959 87.1083 569.687 89.4581C567.906 92.1642 569.524 94.1192 570.389 93.3076C573.654 89.529 575.102 91.0426 580.469 87.7304Z" fill="#FF2E6B"/>
<path d="M553.794 96.2695C545.092 101.38 547.704 109.317 550.007 112.825C553.895 103.534 565.155 106.104 569.305 104.669C572.252 103.891 576.41 101.578 578.907 99.5095C579.448 99.0615 580.837 98.0766 580.768 97.4627C580.564 96.3499 579.362 96.4657 578.391 97.0693C575.493 98.8713 568.119 102.269 562.085 100.984C555.71 98.7777 562.304 96.8916 564.576 94.5419C566.357 91.8358 564.74 89.8808 563.875 90.6924C560.609 94.4709 559.161 92.9573 553.794 96.2695Z" fill="#F4AE0B"/>
<path d="M791.931 104.5C790.045 104.5 788.353 103.958 786.853 102.875C785.353 101.781 784.165 100.297 783.29 98.4219C782.426 96.5365 781.993 94.4167 781.993 92.0625C781.993 89.6979 782.426 87.5781 783.29 85.7031C784.165 83.8281 785.353 82.349 786.853 81.2656C788.353 80.1719 790.045 79.625 791.931 79.625C793.816 79.625 795.504 80.1719 796.993 81.2656C798.493 82.3594 799.681 83.8438 800.556 85.7188C801.431 87.5938 801.868 89.7083 801.868 92.0625C801.868 94.4167 801.431 96.5365 800.556 98.4219C799.691 100.297 798.509 101.781 797.009 102.875C795.509 103.958 793.816 104.5 791.931 104.5ZM791.931 103.5C793.629 103.5 795.15 103 796.493 102C797.848 101 798.915 99.6354 799.696 97.9063C800.478 96.1771 800.868 94.2292 800.868 92.0625C800.868 89.8958 800.473 87.9531 799.681 86.2344C798.9 84.5052 797.837 83.1406 796.493 82.1406C795.15 81.1302 793.629 80.625 791.931 80.625C790.243 80.625 788.722 81.1302 787.368 82.1406C786.025 83.1406 784.957 84.5052 784.165 86.2344C783.384 87.9531 782.993 89.8958 782.993 92.0625C782.993 94.2292 783.384 96.1771 784.165 97.9063C784.946 99.6354 786.009 101 787.353 102C788.707 103 790.233 103.5 791.931 103.5Z" fill="#FF2E6B"/>
<path d="M757.531 88.4375V104H755.625V72H757.531V83.7969H757.719C758.281 82.5469 759.177 81.5521 760.406 80.8125C761.646 80.0625 763.13 79.6875 764.86 79.6875C766.474 79.6875 767.896 80.0313 769.125 80.7188C770.354 81.3958 771.313 82.3698 772 83.6406C772.698 84.9011 773.047 86.4115 773.047 88.1719V104H771.156V88.25C771.156 86.1979 770.547 84.5521 769.328 83.3125C768.11 82.0729 766.5 81.4531 764.5 81.4531C763.156 81.4531 761.959 81.7448 760.906 82.3281C759.854 82.9115 759.026 83.7292 758.422 84.7813C757.828 85.8229 757.531 87.0417 757.531 88.4375Z" fill="#FF2E6B"/>
<path d="M730.444 88.9999V104H727.663V79.9999H730.366V83.7655H730.616C731.179 82.5363 732.054 81.552 733.241 80.8124C734.439 80.0624 735.918 79.6874 737.679 79.6874C739.293 79.6874 740.71 80.0259 741.929 80.703C743.158 81.3697 744.111 82.354 744.788 83.6561C745.476 84.9582 745.819 86.5572 745.819 88.453V104H743.038V88.6249C743.038 86.6561 742.486 85.0988 741.382 83.953C740.288 82.8072 738.819 82.2343 736.976 82.2343C735.715 82.2343 734.595 82.5051 733.616 83.0468C732.637 83.5884 731.861 84.3697 731.288 85.3905C730.725 86.4009 730.444 87.6041 730.444 88.9999Z" fill="#FF2E6B"/>
<path d="M714.725 104V80H718.413V104H714.725ZM716.6 76C715.882 76 715.262 75.7552 714.741 75.2656C714.231 74.776 713.975 74.1875 713.975 73.5C713.975 72.8125 714.231 72.224 714.741 71.7344C715.262 71.2448 715.882 71 716.6 71C717.319 71 717.934 71.2448 718.444 71.7344C718.965 72.224 719.225 72.8125 719.225 73.5C719.225 74.1875 718.965 74.776 718.444 75.2656C717.934 75.7552 717.319 76 716.6 76Z" fill="#FF2E6B"/>
<path d="M685.135 113V79.9999H689.697V83.8905H690.088C690.359 83.3905 690.749 82.8124 691.26 82.1561C691.77 81.4999 692.478 80.927 693.385 80.4374C694.291 79.9374 695.489 79.6874 696.978 79.6874C698.916 79.6874 700.645 80.177 702.166 81.1561C703.687 82.1353 704.88 83.5468 705.744 85.3905C706.619 87.2343 707.057 89.453 707.057 92.0468C707.057 94.6405 706.624 96.8645 705.76 98.7186C704.895 100.562 703.708 101.984 702.197 102.984C700.687 103.974 698.963 104.469 697.025 104.469C695.567 104.469 694.374 104.224 693.447 103.734C692.531 103.245 691.812 102.672 691.291 102.016C690.77 101.359 690.369 100.776 690.088 100.266H689.807V113H685.135ZM689.713 91.9999C689.713 93.6874 689.958 95.1666 690.447 96.4374C690.937 97.7082 691.645 98.703 692.572 99.4218C693.499 100.13 694.635 100.484 695.978 100.484C697.374 100.484 698.541 100.114 699.478 99.3749C700.416 98.6249 701.124 97.6093 701.603 96.328C702.093 95.0468 702.338 93.6041 702.338 91.9999C702.338 90.4166 702.098 88.9947 701.619 87.7343C701.15 86.4738 700.442 85.4791 699.494 84.7499C698.557 84.0207 697.385 83.6561 695.978 83.6561C694.624 83.6561 693.478 84.0051 692.541 84.703C691.614 85.4009 690.911 86.3749 690.432 87.6249C689.952 88.8749 689.713 90.3332 689.713 91.9999Z" fill="#FF2E6B"/>
<path d="M676.884 72V104H671.227V72H676.884Z" fill="#FF2E6B"/>
<path d="M653.418 104.469C650.949 104.469 648.824 103.969 647.043 102.969C645.272 101.958 643.907 100.531 642.949 98.6874C641.991 96.8332 641.511 94.6405 641.511 92.1093C641.511 89.6405 641.991 87.4738 642.949 85.6093C643.907 83.7447 645.256 82.2915 646.996 81.2499C648.746 80.2082 650.798 79.6874 653.152 79.6874C654.735 79.6874 656.209 79.9426 657.574 80.453C658.949 80.953 660.147 81.7082 661.168 82.7186C662.199 83.729 663.001 84.9999 663.574 86.5311C664.147 88.052 664.433 89.8332 664.433 91.8749V93.703H644.168V89.578H658.168C658.168 88.6197 657.959 87.7707 657.543 87.0311C657.126 86.2916 656.548 85.7134 655.808 85.2968C655.079 84.8697 654.23 84.6561 653.261 84.6561C652.251 84.6561 651.355 84.8905 650.574 85.3593C649.803 85.8176 649.199 86.4374 648.761 87.2186C648.324 87.9895 648.1 88.8488 648.09 89.7968V93.7186C648.09 94.9061 648.308 95.9322 648.746 96.7968C649.194 97.6614 649.824 98.328 650.636 98.7968C651.449 99.2655 652.412 99.4999 653.527 99.4999C654.267 99.4999 654.944 99.3957 655.558 99.1874C656.173 98.9791 656.699 98.6666 657.136 98.2499C657.574 97.8332 657.907 97.3228 658.136 96.7186L664.293 97.1249C663.98 98.6041 663.34 99.8957 662.371 101C661.412 102.094 660.173 102.948 658.652 103.562C657.142 104.167 655.397 104.469 653.418 104.469Z" fill="#FF2E6B"/>
<path d="M607.132 104V72H614.866V84.8438H627.476V72H635.194V104H627.476V91.1406H614.866V104H607.132Z" fill="#FF2E6B"/>
<line x1="508.632" y1="116" x2="508.632" y2="68" stroke="#FF2E6B"/>
<path fill-rule="evenodd" clip-rule="evenodd" d="M175.124 108.322C173.709 108.322 173.132 107.619 173.132 106.321L173.132 75.2711C173.132 72.7291 177.01 72.7291 177.01 75.2711L177.01 104.752L196.609 104.752C199.282 104.752 199.282 108.322 196.609 108.322L175.124 108.322Z" fill="black"/>
<path fill-rule="evenodd" clip-rule="evenodd" d="M207.093 104.752L227.793 104.752C229.994 104.752 230.308 108.322 227.793 108.322L205.731 108.322C204.262 108.322 203.32 107.241 203.32 105.942L203.32 76.2456C203.32 75.0011 204.262 73.9186 205.731 73.9186L227.845 73.9186C230.098 73.9186 229.994 77.3811 227.793 77.3811L207.093 77.3811L207.093 89.5529L226.797 89.5529C228.894 89.5529 228.999 93.0153 226.797 93.0153L207.093 93.0153L207.093 104.752Z" fill="black"/>
<path fill-rule="evenodd" clip-rule="evenodd" d="M264.585 102.317C261.493 106.537 256.305 108.862 251.221 108.81C242.207 108.755 234.451 101.019 234.66 90.7954C234.66 82.5739 240.634 75.0542 248.652 73.4859C249.439 73.3789 250.434 73.3239 251.377 73.3239C255.938 73.3239 260.812 74.9472 263.694 78.4087C265.265 80.3029 262.593 82.8997 260.968 80.9506C258.033 77.4361 253.159 76.1916 249.229 77.2192C243.465 78.6256 238.435 83.8724 238.435 90.9573C238.538 98.586 244.512 104.968 251.274 105.13C255.151 105.185 259.186 103.453 261.493 100.261L261.493 93.0684L252.06 93.0684C249.597 93.0684 249.858 89.4979 252.06 89.4979L263.17 89.4979C264.689 89.4979 265.162 90.3096 265.162 91.5L265.162 100.533C265.162 101.128 265.056 101.83 264.585 102.317Z" fill="black"/>
<path fill-rule="evenodd" clip-rule="evenodd" d="M287.436 78.7875L279.155 95.8262L295.662 95.8262L287.436 78.7875ZM277.583 99.2357L273.339 107.781C272.396 109.782 268.937 108.376 269.881 106.213L285.707 74.0285C286.021 73.3239 286.754 73 287.436 73C288.117 73 288.746 73.3239 289.112 74.0285L304.886 106.051C306.249 108.376 302.371 109.728 301.375 107.619L297.287 99.2357L277.583 99.2357Z" fill="black"/>
<path fill-rule="evenodd" clip-rule="evenodd" d="M312.277 108.322C310.861 108.322 310.285 107.619 310.285 106.321L310.285 75.2711C310.285 72.7291 314.166 72.7291 314.166 75.2711L314.166 104.752L333.764 104.752C336.436 104.752 336.436 108.322 333.764 108.322L312.277 108.322Z" fill="black"/>
<path fill-rule="evenodd" clip-rule="evenodd" d="M345.74 91.1212L345.74 106.699C350.247 106.699 354.807 106.699 359.366 106.699C364.869 106.699 370.842 105.185 370.842 98.531C370.842 93.2293 366.494 91.1212 361.044 91.1212L345.74 91.1212ZM345.74 75.5419L345.74 89.389L358.266 89.389C363.663 89.389 368.327 87.8206 368.327 82.7898C368.327 76.9483 361.147 75.5969 357.584 75.5419L345.74 75.5419ZM359.366 108.322C354.545 108.322 349.724 108.322 344.902 108.322C344.378 108.322 343.958 107.89 343.958 107.348C343.958 96.5299 343.958 85.7125 343.958 74.8942C343.958 74.3524 344.378 73.9186 344.902 73.9186L357.584 73.9186C362.037 73.9186 370.162 75.4889 370.162 82.7898C370.162 86.2523 368.274 88.7942 364.921 89.8767C369.323 90.7954 372.677 93.5012 372.677 98.531C372.677 106.213 365.811 108.322 359.366 108.322Z" fill="black"/>
<path fill-rule="evenodd" clip-rule="evenodd" d="M380.854 90.5804C380.593 99.8835 387.614 107.293 395.738 107.293C403.913 107.293 410.936 99.8835 410.672 90.5804C410.465 83.0067 405.432 76.2987 397.99 75.1091C396.314 74.8392 394.532 74.8392 392.856 75.1091C385.465 76.2986 381.064 83.0067 380.854 90.5804ZM379.073 90.5265C379.335 82.1411 384.365 74.7303 392.593 73.3789C394.428 73.107 396.42 73.107 398.254 73.3789C406.534 74.7303 412.192 82.1411 412.404 90.5265C412.718 100.966 404.856 108.972 395.738 108.972C386.672 108.972 378.811 100.966 379.073 90.5265Z" fill="black"/>
<path fill-rule="evenodd" clip-rule="evenodd" d="M432.11 89.5529L445.316 73.8116C446.102 72.7841 447.413 73.9186 446.627 74.9472L433.158 90.7424L447.046 107.079C447.884 108.214 446.679 109.242 445.735 108.214L432.11 91.9328L418.432 108.214C417.542 109.242 416.18 108.214 417.123 107.079L430.957 90.7424L417.594 74.8942C416.756 73.9186 418.013 72.7841 418.851 73.8116L432.11 89.5529Z" fill="black"/>
<path fill-rule="evenodd" clip-rule="evenodd" d="M179.638 130.976C181.311 130.976 182.353 130.21 182.353 128.939L182.353 128.905C182.353 127.666 181.342 126.951 179.416 126.951L175.927 126.951L175.927 130.976L179.638 130.976ZM179.195 125.81C180.696 125.81 181.737 125.108 181.737 123.773L181.737 123.739C181.737 122.615 180.87 121.881 179.29 121.881L175.927 121.881L175.927 125.81L179.195 125.81ZM174.695 121.376C174.695 121.019 174.98 120.725 175.311 120.725L179.401 120.725C180.664 120.725 181.659 121.1 182.29 121.736C182.748 122.224 183 122.828 183 123.56L183 123.593C183 125.076 182.118 125.842 181.249 126.234C182.558 126.641 183.616 127.423 183.616 128.988L183.616 129.02C183.616 130.976 182.022 132.132 179.605 132.132L175.311 132.132C174.98 132.132 174.695 131.838 174.695 131.481L174.695 121.376Z" fill="#69696B"/>
<path fill-rule="evenodd" clip-rule="evenodd" d="M189.034 127.651L184.93 121.719C184.849 121.589 184.788 121.442 184.788 121.278C184.788 120.936 185.086 120.644 185.435 120.644C185.703 120.644 185.876 120.806 186.035 121.033L189.681 126.461L193.361 121.033C193.519 120.806 193.676 120.644 193.944 120.644C194.293 120.644 194.561 120.936 194.561 121.278C194.561 121.442 194.465 121.621 194.387 121.751L190.297 127.617L190.297 131.562C190.297 131.921 190.014 132.215 189.667 132.215C189.319 132.215 189.034 131.921 189.034 131.562L189.034 127.651Z" fill="#69696B"/>
<path fill-rule="evenodd" clip-rule="evenodd" d="M201.417 121.638C201.417 121.083 201.844 120.644 202.394 120.644C202.933 120.644 203.36 121.083 203.36 121.638L203.36 130.307L208.365 130.307C208.853 130.307 209.247 130.714 209.247 131.221C209.247 131.725 208.853 132.132 208.365 132.132L202.394 132.132C201.844 132.132 201.417 131.694 201.417 131.123L201.417 121.638Z" fill="#69696B"/>
<path fill-rule="evenodd" clip-rule="evenodd" d="M216.324 130.357C217.65 130.357 218.455 129.819 218.455 128.792L218.455 128.758C218.455 127.798 217.713 127.228 216.182 127.228L213.103 127.228L213.103 130.357L216.324 130.357ZM215.755 125.531C217.003 125.531 217.841 125.027 217.841 123.984L217.841 123.952C217.841 123.056 217.145 122.5 215.897 122.5L213.103 122.5L213.103 125.531L215.755 125.531ZM211.191 121.736C211.191 121.165 211.618 120.725 212.171 120.725L216.149 120.725C217.413 120.725 218.408 121.082 219.039 121.736C219.529 122.24 219.782 122.86 219.782 123.626L219.782 123.658C219.782 125.027 219.024 125.761 218.203 126.2C219.496 126.657 220.397 127.423 220.397 128.971L220.397 129.003C220.397 131.04 218.771 132.132 216.308 132.132L212.171 132.132C211.618 132.132 211.191 131.694 211.191 131.123L211.191 121.736Z" fill="#69696B"/>
<path fill-rule="evenodd" clip-rule="evenodd" d="M222.104 126.461L222.104 126.429C222.104 123.186 224.456 120.529 227.803 120.529C229.51 120.529 230.631 121.051 231.594 121.817C231.799 121.979 231.973 122.258 231.973 122.615C231.973 123.168 231.546 123.593 231.01 123.593C230.74 123.593 230.553 123.494 230.425 123.398C229.668 122.762 228.847 122.37 227.789 122.37C225.688 122.37 224.142 124.162 224.142 126.396L224.142 126.429C224.142 128.66 225.673 130.469 227.789 130.469C228.957 130.469 229.747 130.08 230.553 129.377C230.693 129.248 230.899 129.15 231.136 129.15C231.625 129.15 232.052 129.574 232.052 130.08C232.052 130.388 231.91 130.633 231.736 130.795C230.693 131.743 229.51 132.328 227.725 132.328C224.504 132.328 222.104 129.738 222.104 126.461Z" fill="#69696B"/>
<path fill-rule="evenodd" clip-rule="evenodd" d="M240.85 127.603L238.907 122.99L236.967 127.603L240.85 127.603ZM233.619 130.829L237.723 121.376C237.943 120.871 238.339 120.561 238.892 120.561L238.988 120.561C239.54 120.561 239.918 120.871 240.14 121.376L244.244 130.829C244.324 130.976 244.356 131.123 244.356 131.253C244.356 131.789 243.96 132.215 243.439 132.215C242.982 132.215 242.666 131.936 242.492 131.512L241.592 129.377L236.224 129.377L235.291 131.579C235.134 131.986 234.803 132.215 234.392 132.215C233.887 132.215 233.491 131.806 233.491 131.285C233.491 131.138 233.538 130.991 233.619 130.829Z" fill="#69696B"/>
<path d="M461.071 79.5666C461.071 79.0337 461.503 78.6017 462.036 78.6017L471.684 78.6017C472.217 78.6017 472.649 79.0337 472.649 79.5666V79.5666C472.649 80.0995 472.217 80.5315 471.684 80.5315L462.036 80.5315C461.503 80.5315 461.071 80.0995 461.071 79.5666V79.5666Z" fill="#131313"/>
<path fill-rule="evenodd" clip-rule="evenodd" d="M460.588 79.5666C460.588 78.7673 461.236 78.1193 462.036 78.1193L471.684 78.1193C472.484 78.1193 473.132 78.7673 473.132 79.5666C473.132 80.3659 472.484 81.0139 471.684 81.0139L462.036 81.0139C461.236 81.0139 460.588 80.3659 460.588 79.5666ZM462.036 79.0842C461.769 79.0842 461.553 79.3001 461.553 79.5666C461.553 79.833 461.769 80.049 462.036 80.049L471.684 80.049C471.951 80.049 472.167 79.833 472.167 79.5666C472.167 79.3001 471.951 79.0842 471.684 79.0842L462.036 79.0842Z" fill="#131313"/>
<path d="M466.86 73.7773C467.393 73.7773 467.825 74.2093 467.825 74.7422L467.825 84.3911C467.825 84.924 467.393 85.356 466.86 85.356V85.356C466.327 85.356 465.895 84.924 465.895 84.3911L465.895 74.7422C465.895 74.2093 466.327 73.7773 466.86 73.7773V73.7773Z" fill="#131313"/>
<path fill-rule="evenodd" clip-rule="evenodd" d="M466.86 73.2949C467.659 73.2949 468.307 73.9429 468.307 74.7422L468.307 84.3911C468.307 85.1904 467.659 85.8384 466.86 85.8384C466.061 85.8384 465.413 85.1904 465.413 84.3911L465.413 74.7422C465.413 73.9429 466.061 73.2949 466.86 73.2949ZM467.342 74.7422C467.342 74.4757 467.126 74.2597 466.86 74.2597C466.594 74.2597 466.378 74.4757 466.378 74.7422L466.378 84.3911C466.378 84.6575 466.594 84.8735 466.86 84.8735C467.126 84.8735 467.342 84.6575 467.342 84.3911L467.342 74.7422Z" fill="#131313"/>
</g>
<defs>
<linearGradient id="paint0_linear_40_52402" x1="0" y1="11.9995" x2="991" y2="11.9995" gradientUnits="userSpaceOnUse">
<stop stop-color="#F40B59"/>
<stop offset="0.525" stop-color="#F4AE0B"/>
<stop offset="1" stop-color="#F2F817"/>
</linearGradient>
<clipPath id="clip0_40_52402">
<path d="M0 20C0 8.95428 8.95431 0 20 0H971C982.046 0 991 8.9543 991 20V172.328H0V20Z" fill="white"/>
</clipPath>
</defs>
</svg>
