<svg width="1200" height="172" viewBox="0 0 1200 172" fill="none" xmlns="http://www.w3.org/2000/svg">
<g clip-path="url(#clip0_40_52402)">
<path d="M0 20C0 8.9543 8.95431 0 20 0H1180C1191.05 0 1200 8.9543 1200 20V172H0V20Z" fill="white"/>
<rect width="1200" height="12" fill="url(#paint0_linear_40_52402)"/>
<path d="M509.969 87.7304C518.671 82.6202 516.059 74.6832 513.756 71.1754C509.868 80.4655 498.608 77.8957 494.458 79.3313C491.511 80.109 487.353 82.4217 484.856 84.4904C484.316 84.9385 482.927 85.9234 482.995 86.5373C483.199 87.6501 484.401 87.5343 485.372 86.9307C488.271 85.1286 495.644 81.7308 501.678 83.0158C508.053 85.2223 501.459 87.1083 499.187 89.4581C497.406 92.1642 499.024 94.1192 499.889 93.3076C503.154 89.529 504.602 91.0426 509.969 87.7304Z" fill="#FF2E6B"/>
<path d="M483.294 96.2695C474.592 101.38 477.204 109.317 479.507 112.825C483.395 103.534 494.655 106.104 498.805 104.669C501.752 103.891 505.91 101.578 508.407 99.5095C508.948 99.0615 510.336 98.0766 510.268 97.4627C510.064 96.3499 508.862 96.4657 507.891 97.0693C504.993 98.8713 497.619 102.269 491.585 100.984C485.21 98.7777 491.804 96.8916 494.076 94.5419C495.857 91.8358 494.24 89.8808 493.375 90.6924C490.109 94.4709 488.661 92.9573 483.294 96.2695Z" fill="#F4AE0B"/>
<path d="M721.431 104.5C719.545 104.5 717.853 103.958 716.353 102.875C714.853 101.781 713.665 100.297 712.79 98.4219C711.926 96.5365 711.493 94.4167 711.493 92.0625C711.493 89.698 711.926 87.5782 712.79 85.7032C713.665 83.8282 714.853 82.349 716.353 81.2657C717.853 80.1719 719.545 79.625 721.431 79.625C723.316 79.625 725.004 80.1719 726.493 81.2657C727.993 82.3594 729.181 83.8438 730.056 85.7188C730.931 87.5938 731.368 89.7084 731.368 92.0625C731.368 94.4167 730.931 96.5365 730.056 98.4219C729.191 100.297 728.009 101.781 726.509 102.875C725.009 103.958 723.316 104.5 721.431 104.5ZM721.431 103.5C723.129 103.5 724.65 103 725.993 102C727.347 101 728.415 99.6355 729.196 97.9063C729.978 96.1771 730.368 94.2292 730.368 92.0625C730.368 89.8959 729.972 87.9532 729.181 86.2344C728.4 84.5052 727.337 83.1407 725.993 82.1407C724.65 81.1302 723.129 80.625 721.431 80.625C719.743 80.625 718.222 81.1302 716.868 82.1407C715.525 83.1407 714.457 84.5052 713.665 86.2344C712.884 87.9532 712.493 89.8959 712.493 92.0625C712.493 94.2292 712.884 96.1771 713.665 97.9063C714.446 99.6355 715.509 101 716.853 102C718.207 103 719.733 103.5 721.431 103.5Z" fill="#FF2E6B"/>
<path d="M687.031 88.4375V104H685.125V72H687.031V83.7969H687.219C687.781 82.5469 688.677 81.5521 689.906 80.8125C691.146 80.0625 692.63 79.6875 694.36 79.6875C695.974 79.6875 697.396 80.0312 698.625 80.7187C699.854 81.3958 700.813 82.3698 701.5 83.6406C702.198 84.901 702.547 86.4114 702.547 88.1719V104H700.656V88.25C700.656 86.1979 700.047 84.5521 698.828 83.3125C697.61 82.0729 696 81.4531 694 81.4531C692.656 81.4531 691.458 81.7448 690.406 82.3281C689.354 82.9114 688.526 83.7291 687.922 84.7812C687.328 85.8229 687.031 87.0417 687.031 88.4375Z" fill="#FF2E6B"/>
<path d="M659.944 88.9999V104H657.163V79.9999H659.866V83.7655H660.116C660.679 82.5364 661.554 81.552 662.741 80.8124C663.939 80.0624 665.418 79.6874 667.179 79.6874C668.793 79.6874 670.21 80.026 671.429 80.703C672.658 81.3697 673.611 82.3541 674.288 83.6562C674.975 84.9582 675.319 86.5572 675.319 88.453V104H672.538V88.6249C672.538 86.6562 671.986 85.0989 670.882 83.953C669.788 82.8072 668.319 82.2343 666.475 82.2343C665.215 82.2343 664.095 82.5051 663.116 83.0468C662.137 83.5885 661.361 84.3697 660.788 85.3905C660.225 86.401 659.944 87.6041 659.944 88.9999Z" fill="#FF2E6B"/>
<path d="M644.225 104V80H647.913V104H644.225ZM646.1 76C645.382 76 644.762 75.7552 644.241 75.2656C643.73 74.776 643.475 74.1875 643.475 73.5C643.475 72.8125 643.73 72.224 644.241 71.7344C644.762 71.2448 645.382 71 646.1 71C646.819 71 647.434 71.2448 647.944 71.7344C648.465 72.224 648.725 72.8125 648.725 73.5C648.725 74.1875 648.465 74.776 647.944 75.2656C647.434 75.7552 646.819 76 646.1 76Z" fill="#FF2E6B"/>
<path d="M614.635 113V79.9999H619.197V83.8905H619.588C619.859 83.3905 620.249 82.8124 620.76 82.1562C621.27 81.4999 621.978 80.927 622.885 80.4374C623.791 79.9374 624.989 79.6874 626.478 79.6874C628.416 79.6874 630.145 80.177 631.666 81.1562C633.187 82.1353 634.379 83.5468 635.244 85.3905C636.119 87.2343 636.557 89.453 636.557 92.0468C636.557 94.6405 636.124 96.8645 635.26 98.7187C634.395 100.562 633.208 101.984 631.697 102.984C630.187 103.974 628.463 104.469 626.525 104.469C625.067 104.469 623.874 104.224 622.947 103.734C622.03 103.245 621.312 102.672 620.791 102.016C620.27 101.359 619.869 100.776 619.588 100.266H619.307V113H614.635ZM619.213 91.9999C619.213 93.6874 619.458 95.1666 619.947 96.4374C620.437 97.7083 621.145 98.7031 622.072 99.4218C622.999 100.13 624.135 100.484 625.478 100.484C626.874 100.484 628.041 100.115 628.978 99.3749C629.916 98.6249 630.624 97.6093 631.103 96.3281C631.593 95.0468 631.838 93.6041 631.838 91.9999C631.838 90.4166 631.598 88.9947 631.119 87.7343C630.65 86.4739 629.942 85.4791 628.994 84.7499C628.057 84.0207 626.885 83.6562 625.478 83.6562C624.124 83.6562 622.978 84.0051 622.041 84.703C621.114 85.401 620.411 86.3749 619.932 87.6249C619.452 88.8749 619.213 90.3333 619.213 91.9999Z" fill="#FF2E6B"/>
<path d="M606.384 72V104H600.727V72H606.384Z" fill="#FF2E6B"/>
<path d="M582.918 104.469C580.449 104.469 578.324 103.969 576.543 102.969C574.772 101.958 573.407 100.531 572.449 98.6874C571.491 96.8333 571.011 94.6406 571.011 92.1093C571.011 89.6405 571.491 87.4739 572.449 85.6093C573.407 83.7447 574.756 82.2916 576.496 81.2499C578.246 80.2082 580.298 79.6874 582.652 79.6874C584.235 79.6874 585.709 79.9426 587.074 80.453C588.449 80.953 589.647 81.7082 590.668 82.7187C591.699 83.7291 592.501 84.9999 593.074 86.5312C593.647 88.052 593.933 89.8333 593.933 91.8749V93.703H573.668V89.578H587.668C587.668 88.6197 587.459 87.7708 587.043 87.0312C586.626 86.2916 586.048 85.7135 585.308 85.2968C584.579 84.8697 583.73 84.6562 582.761 84.6562C581.751 84.6562 580.855 84.8905 580.074 85.3593C579.303 85.8176 578.699 86.4374 578.261 87.2187C577.824 87.9895 577.6 88.8489 577.589 89.7968V93.7187C577.589 94.9062 577.808 95.9322 578.246 96.7968C578.694 97.6614 579.324 98.3281 580.136 98.7968C580.949 99.2656 581.912 99.4999 583.027 99.4999C583.767 99.4999 584.444 99.3958 585.058 99.1874C585.673 98.9791 586.199 98.6666 586.636 98.2499C587.074 97.8333 587.407 97.3228 587.636 96.7187L593.793 97.1249C593.48 98.6041 592.84 99.8958 591.871 101C590.912 102.094 589.673 102.948 588.152 103.562C586.642 104.167 584.897 104.469 582.918 104.469Z" fill="#FF2E6B"/>
<path d="M536.632 104V72H544.366V84.8437H556.975V72H564.694V104H556.975V91.1406H544.366V104H536.632Z" fill="#FF2E6B"/>
</g>
<defs>
<linearGradient id="paint0_linear_40_52402" x1="0" y1="11.9995" x2="1200" y2="11.9995" gradientUnits="userSpaceOnUse">
<stop stop-color="#F40B59"/>
<stop offset="0.525" stop-color="#F4AE0B"/>
<stop offset="1" stop-color="#F2F817"/>
</linearGradient>
<clipPath id="clip0_40_52402">
<path d="M0 20C0 8.9543 8.95431 0 20 0H1180C1191.05 0 1200 8.9543 1200 20V172H0V20Z" fill="white"/>
</clipPath>
</defs>
</svg>
